<?xml version="1.0" encoding="utf-8" standalone="no"?>
<!DOCTYPE svg PUBLIC "-//W3C//DTD SVG 1.1//EN"
  "http://www.w3.org/Graphics/SVG/1.1/DTD/svg11.dtd">
<svg xmlns:xlink="http://www.w3.org/1999/xlink" width="756.634063pt" height="391.437812pt" viewBox="0 0 756.634063 391.437812" xmlns="http://www.w3.org/2000/svg" version="1.1">
 <metadata>
  <rdf:RDF xmlns:dc="http://purl.org/dc/elements/1.1/" xmlns:cc="http://creativecommons.org/ns#" xmlns:rdf="http://www.w3.org/1999/02/22-rdf-syntax-ns#">
   <cc:Work>
    <dc:type rdf:resource="http://purl.org/dc/dcmitype/StillImage"/>
    <dc:date>2023-06-27T20:28:11.476634</dc:date>
    <dc:format>image/svg+xml</dc:format>
    <dc:creator>
     <cc:Agent>
      <dc:title>Matplotlib v3.7.1, https://matplotlib.org/</dc:title>
     </cc:Agent>
    </dc:creator>
   </cc:Work>
  </rdf:RDF>
 </metadata>
 <defs>
  <style type="text/css">*{stroke-linejoin: round; stroke-linecap: butt}</style>
 </defs>
 <g id="figure_1">
  <g id="patch_1">
   <path d="M 0 391.437812 
L 756.634063 391.437812 
L 756.634063 0 
L 0 0 
L 0 391.437812 
z
" style="fill: none"/>
  </g>
  <g id="axes_1">
   <g id="patch_2">
    <path d="M 56.805938 348.478125 
L 559.005938 348.478125 
L 559.005938 22.318125 
L 56.805938 22.318125 
z
" style="fill: #eaeaf2"/>
   </g>
   <g id="matplotlib.axis_1">
    <g id="xtick_1">
     <g id="line2d_1">
      <path d="M 114.454474 348.478125 
L 114.454474 22.318125 
" clip-path="url(#p5fc759a0a5)" style="fill: none; stroke: #ffffff; stroke-linecap: round"/>
     </g>
     <g id="text_1">
      <!-- 1820 -->
      <g style="fill: #262626" transform="translate(100.456974 366.336406) scale(0.11 -0.11)">
       <defs>
        <path id="DejaVuSans-31" d="M 794 531 
L 1825 531 
L 1825 4091 
L 703 3866 
L 703 4441 
L 1819 4666 
L 2450 4666 
L 2450 531 
L 3481 531 
L 3481 0 
L 794 0 
L 794 531 
z
" transform="scale(0.015625)"/>
        <path id="DejaVuSans-38" d="M 2034 2216 
Q 1584 2216 1326 1975 
Q 1069 1734 1069 1313 
Q 1069 891 1326 650 
Q 1584 409 2034 409 
Q 2484 409 2743 651 
Q 3003 894 3003 1313 
Q 3003 1734 2745 1975 
Q 2488 2216 2034 2216 
z
M 1403 2484 
Q 997 2584 770 2862 
Q 544 3141 544 3541 
Q 544 4100 942 4425 
Q 1341 4750 2034 4750 
Q 2731 4750 3128 4425 
Q 3525 4100 3525 3541 
Q 3525 3141 3298 2862 
Q 3072 2584 2669 2484 
Q 3125 2378 3379 2068 
Q 3634 1759 3634 1313 
Q 3634 634 3220 271 
Q 2806 -91 2034 -91 
Q 1263 -91 848 271 
Q 434 634 434 1313 
Q 434 1759 690 2068 
Q 947 2378 1403 2484 
z
M 1172 3481 
Q 1172 3119 1398 2916 
Q 1625 2713 2034 2713 
Q 2441 2713 2670 2916 
Q 2900 3119 2900 3481 
Q 2900 3844 2670 4047 
Q 2441 4250 2034 4250 
Q 1625 4250 1398 4047 
Q 1172 3844 1172 3481 
z
" transform="scale(0.015625)"/>
        <path id="DejaVuSans-32" d="M 1228 531 
L 3431 531 
L 3431 0 
L 469 0 
L 469 531 
Q 828 903 1448 1529 
Q 2069 2156 2228 2338 
Q 2531 2678 2651 2914 
Q 2772 3150 2772 3378 
Q 2772 3750 2511 3984 
Q 2250 4219 1831 4219 
Q 1534 4219 1204 4116 
Q 875 4013 500 3803 
L 500 4441 
Q 881 4594 1212 4672 
Q 1544 4750 1819 4750 
Q 2544 4750 2975 4387 
Q 3406 4025 3406 3419 
Q 3406 3131 3298 2873 
Q 3191 2616 2906 2266 
Q 2828 2175 2409 1742 
Q 1991 1309 1228 531 
z
" transform="scale(0.015625)"/>
        <path id="DejaVuSans-30" d="M 2034 4250 
Q 1547 4250 1301 3770 
Q 1056 3291 1056 2328 
Q 1056 1369 1301 889 
Q 1547 409 2034 409 
Q 2525 409 2770 889 
Q 3016 1369 3016 2328 
Q 3016 3291 2770 3770 
Q 2525 4250 2034 4250 
z
M 2034 4750 
Q 2819 4750 3233 4129 
Q 3647 3509 3647 2328 
Q 3647 1150 3233 529 
Q 2819 -91 2034 -91 
Q 1250 -91 836 529 
Q 422 1150 422 2328 
Q 422 3509 836 4129 
Q 1250 4750 2034 4750 
z
" transform="scale(0.015625)"/>
       </defs>
       <use xlink:href="#DejaVuSans-31"/>
       <use xlink:href="#DejaVuSans-38" x="63.623047"/>
       <use xlink:href="#DejaVuSans-32" x="127.246094"/>
       <use xlink:href="#DejaVuSans-30" x="190.869141"/>
      </g>
     </g>
    </g>
    <g id="xtick_2">
     <g id="line2d_2">
      <path d="M 191.835059 348.478125 
L 191.835059 22.318125 
" clip-path="url(#p5fc759a0a5)" style="fill: none; stroke: #ffffff; stroke-linecap: round"/>
     </g>
     <g id="text_2">
      <!-- 1840 -->
      <g style="fill: #262626" transform="translate(177.837559 366.336406) scale(0.11 -0.11)">
       <defs>
        <path id="DejaVuSans-34" d="M 2419 4116 
L 825 1625 
L 2419 1625 
L 2419 4116 
z
M 2253 4666 
L 3047 4666 
L 3047 1625 
L 3713 1625 
L 3713 1100 
L 3047 1100 
L 3047 0 
L 2419 0 
L 2419 1100 
L 313 1100 
L 313 1709 
L 2253 4666 
z
" transform="scale(0.015625)"/>
       </defs>
       <use xlink:href="#DejaVuSans-31"/>
       <use xlink:href="#DejaVuSans-38" x="63.623047"/>
       <use xlink:href="#DejaVuSans-34" x="127.246094"/>
       <use xlink:href="#DejaVuSans-30" x="190.869141"/>
      </g>
     </g>
    </g>
    <g id="xtick_3">
     <g id="line2d_3">
      <path d="M 269.215645 348.478125 
L 269.215645 22.318125 
" clip-path="url(#p5fc759a0a5)" style="fill: none; stroke: #ffffff; stroke-linecap: round"/>
     </g>
     <g id="text_3">
      <!-- 1860 -->
      <g style="fill: #262626" transform="translate(255.218145 366.336406) scale(0.11 -0.11)">
       <defs>
        <path id="DejaVuSans-36" d="M 2113 2584 
Q 1688 2584 1439 2293 
Q 1191 2003 1191 1497 
Q 1191 994 1439 701 
Q 1688 409 2113 409 
Q 2538 409 2786 701 
Q 3034 994 3034 1497 
Q 3034 2003 2786 2293 
Q 2538 2584 2113 2584 
z
M 3366 4563 
L 3366 3988 
Q 3128 4100 2886 4159 
Q 2644 4219 2406 4219 
Q 1781 4219 1451 3797 
Q 1122 3375 1075 2522 
Q 1259 2794 1537 2939 
Q 1816 3084 2150 3084 
Q 2853 3084 3261 2657 
Q 3669 2231 3669 1497 
Q 3669 778 3244 343 
Q 2819 -91 2113 -91 
Q 1303 -91 875 529 
Q 447 1150 447 2328 
Q 447 3434 972 4092 
Q 1497 4750 2381 4750 
Q 2619 4750 2861 4703 
Q 3103 4656 3366 4563 
z
" transform="scale(0.015625)"/>
       </defs>
       <use xlink:href="#DejaVuSans-31"/>
       <use xlink:href="#DejaVuSans-38" x="63.623047"/>
       <use xlink:href="#DejaVuSans-36" x="127.246094"/>
       <use xlink:href="#DejaVuSans-30" x="190.869141"/>
      </g>
     </g>
    </g>
    <g id="xtick_4">
     <g id="line2d_4">
      <path d="M 346.59623 348.478125 
L 346.59623 22.318125 
" clip-path="url(#p5fc759a0a5)" style="fill: none; stroke: #ffffff; stroke-linecap: round"/>
     </g>
     <g id="text_4">
      <!-- 1880 -->
      <g style="fill: #262626" transform="translate(332.59873 366.336406) scale(0.11 -0.11)">
       <use xlink:href="#DejaVuSans-31"/>
       <use xlink:href="#DejaVuSans-38" x="63.623047"/>
       <use xlink:href="#DejaVuSans-38" x="127.246094"/>
       <use xlink:href="#DejaVuSans-30" x="190.869141"/>
      </g>
     </g>
    </g>
    <g id="xtick_5">
     <g id="line2d_5">
      <path d="M 423.976816 348.478125 
L 423.976816 22.318125 
" clip-path="url(#p5fc759a0a5)" style="fill: none; stroke: #ffffff; stroke-linecap: round"/>
     </g>
     <g id="text_5">
      <!-- 1900 -->
      <g style="fill: #262626" transform="translate(409.979316 366.336406) scale(0.11 -0.11)">
       <defs>
        <path id="DejaVuSans-39" d="M 703 97 
L 703 672 
Q 941 559 1184 500 
Q 1428 441 1663 441 
Q 2288 441 2617 861 
Q 2947 1281 2994 2138 
Q 2813 1869 2534 1725 
Q 2256 1581 1919 1581 
Q 1219 1581 811 2004 
Q 403 2428 403 3163 
Q 403 3881 828 4315 
Q 1253 4750 1959 4750 
Q 2769 4750 3195 4129 
Q 3622 3509 3622 2328 
Q 3622 1225 3098 567 
Q 2575 -91 1691 -91 
Q 1453 -91 1209 -44 
Q 966 3 703 97 
z
M 1959 2075 
Q 2384 2075 2632 2365 
Q 2881 2656 2881 3163 
Q 2881 3666 2632 3958 
Q 2384 4250 1959 4250 
Q 1534 4250 1286 3958 
Q 1038 3666 1038 3163 
Q 1038 2656 1286 2365 
Q 1534 2075 1959 2075 
z
" transform="scale(0.015625)"/>
       </defs>
       <use xlink:href="#DejaVuSans-31"/>
       <use xlink:href="#DejaVuSans-39" x="63.623047"/>
       <use xlink:href="#DejaVuSans-30" x="127.246094"/>
       <use xlink:href="#DejaVuSans-30" x="190.869141"/>
      </g>
     </g>
    </g>
    <g id="xtick_6">
     <g id="line2d_6">
      <path d="M 501.357401 348.478125 
L 501.357401 22.318125 
" clip-path="url(#p5fc759a0a5)" style="fill: none; stroke: #ffffff; stroke-linecap: round"/>
     </g>
     <g id="text_6">
      <!-- 1920 -->
      <g style="fill: #262626" transform="translate(487.359901 366.336406) scale(0.11 -0.11)">
       <use xlink:href="#DejaVuSans-31"/>
       <use xlink:href="#DejaVuSans-39" x="63.623047"/>
       <use xlink:href="#DejaVuSans-32" x="127.246094"/>
       <use xlink:href="#DejaVuSans-30" x="190.869141"/>
      </g>
     </g>
    </g>
    <g id="text_7">
     <!-- Dates -->
     <g style="fill: #262626" transform="translate(290.439375 381.742187) scale(0.12 -0.12)">
      <defs>
       <path id="DejaVuSans-44" d="M 1259 4147 
L 1259 519 
L 2022 519 
Q 2988 519 3436 956 
Q 3884 1394 3884 2338 
Q 3884 3275 3436 3711 
Q 2988 4147 2022 4147 
L 1259 4147 
z
M 628 4666 
L 1925 4666 
Q 3281 4666 3915 4102 
Q 4550 3538 4550 2338 
Q 4550 1131 3912 565 
Q 3275 0 1925 0 
L 628 0 
L 628 4666 
z
" transform="scale(0.015625)"/>
       <path id="DejaVuSans-61" d="M 2194 1759 
Q 1497 1759 1228 1600 
Q 959 1441 959 1056 
Q 959 750 1161 570 
Q 1363 391 1709 391 
Q 2188 391 2477 730 
Q 2766 1069 2766 1631 
L 2766 1759 
L 2194 1759 
z
M 3341 1997 
L 3341 0 
L 2766 0 
L 2766 531 
Q 2569 213 2275 61 
Q 1981 -91 1556 -91 
Q 1019 -91 701 211 
Q 384 513 384 1019 
Q 384 1609 779 1909 
Q 1175 2209 1959 2209 
L 2766 2209 
L 2766 2266 
Q 2766 2663 2505 2880 
Q 2244 3097 1772 3097 
Q 1472 3097 1187 3025 
Q 903 2953 641 2809 
L 641 3341 
Q 956 3463 1253 3523 
Q 1550 3584 1831 3584 
Q 2591 3584 2966 3190 
Q 3341 2797 3341 1997 
z
" transform="scale(0.015625)"/>
       <path id="DejaVuSans-74" d="M 1172 4494 
L 1172 3500 
L 2356 3500 
L 2356 3053 
L 1172 3053 
L 1172 1153 
Q 1172 725 1289 603 
Q 1406 481 1766 481 
L 2356 481 
L 2356 0 
L 1766 0 
Q 1100 0 847 248 
Q 594 497 594 1153 
L 594 3053 
L 172 3053 
L 172 3500 
L 594 3500 
L 594 4494 
L 1172 4494 
z
" transform="scale(0.015625)"/>
       <path id="DejaVuSans-65" d="M 3597 1894 
L 3597 1613 
L 953 1613 
Q 991 1019 1311 708 
Q 1631 397 2203 397 
Q 2534 397 2845 478 
Q 3156 559 3463 722 
L 3463 178 
Q 3153 47 2828 -22 
Q 2503 -91 2169 -91 
Q 1331 -91 842 396 
Q 353 884 353 1716 
Q 353 2575 817 3079 
Q 1281 3584 2069 3584 
Q 2775 3584 3186 3129 
Q 3597 2675 3597 1894 
z
M 3022 2063 
Q 3016 2534 2758 2815 
Q 2500 3097 2075 3097 
Q 1594 3097 1305 2825 
Q 1016 2553 972 2059 
L 3022 2063 
z
" transform="scale(0.015625)"/>
       <path id="DejaVuSans-73" d="M 2834 3397 
L 2834 2853 
Q 2591 2978 2328 3040 
Q 2066 3103 1784 3103 
Q 1356 3103 1142 2972 
Q 928 2841 928 2578 
Q 928 2378 1081 2264 
Q 1234 2150 1697 2047 
L 1894 2003 
Q 2506 1872 2764 1633 
Q 3022 1394 3022 966 
Q 3022 478 2636 193 
Q 2250 -91 1575 -91 
Q 1294 -91 989 -36 
Q 684 19 347 128 
L 347 722 
Q 666 556 975 473 
Q 1284 391 1588 391 
Q 1994 391 2212 530 
Q 2431 669 2431 922 
Q 2431 1156 2273 1281 
Q 2116 1406 1581 1522 
L 1381 1569 
Q 847 1681 609 1914 
Q 372 2147 372 2553 
Q 372 3047 722 3315 
Q 1072 3584 1716 3584 
Q 2034 3584 2315 3537 
Q 2597 3491 2834 3397 
z
" transform="scale(0.015625)"/>
      </defs>
      <use xlink:href="#DejaVuSans-44"/>
      <use xlink:href="#DejaVuSans-61" x="77.001953"/>
      <use xlink:href="#DejaVuSans-74" x="138.28125"/>
      <use xlink:href="#DejaVuSans-65" x="177.490234"/>
      <use xlink:href="#DejaVuSans-73" x="239.013672"/>
     </g>
    </g>
   </g>
   <g id="matplotlib.axis_2">
    <g id="ytick_1">
     <g id="line2d_7">
      <path d="M 56.805938 316.265474 
L 559.005938 316.265474 
" clip-path="url(#p5fc759a0a5)" style="fill: none; stroke: #ffffff; stroke-linecap: round"/>
     </g>
     <g id="text_8">
      <!-- 0.07 -->
      <g style="fill: #262626" transform="translate(22.81375 320.444615) scale(0.11 -0.11)">
       <defs>
        <path id="DejaVuSans-2e" d="M 684 794 
L 1344 794 
L 1344 0 
L 684 0 
L 684 794 
z
" transform="scale(0.015625)"/>
        <path id="DejaVuSans-37" d="M 525 4666 
L 3525 4666 
L 3525 4397 
L 1831 0 
L 1172 0 
L 2766 4134 
L 525 4134 
L 525 4666 
z
" transform="scale(0.015625)"/>
       </defs>
       <use xlink:href="#DejaVuSans-30"/>
       <use xlink:href="#DejaVuSans-2e" x="63.623047"/>
       <use xlink:href="#DejaVuSans-30" x="95.410156"/>
       <use xlink:href="#DejaVuSans-37" x="159.033203"/>
      </g>
     </g>
    </g>
    <g id="ytick_2">
     <g id="line2d_8">
      <path d="M 56.805938 279.835984 
L 559.005938 279.835984 
" clip-path="url(#p5fc759a0a5)" style="fill: none; stroke: #ffffff; stroke-linecap: round"/>
     </g>
     <g id="text_9">
      <!-- 0.08 -->
      <g style="fill: #262626" transform="translate(22.81375 284.015125) scale(0.11 -0.11)">
       <use xlink:href="#DejaVuSans-30"/>
       <use xlink:href="#DejaVuSans-2e" x="63.623047"/>
       <use xlink:href="#DejaVuSans-30" x="95.410156"/>
       <use xlink:href="#DejaVuSans-38" x="159.033203"/>
      </g>
     </g>
    </g>
    <g id="ytick_3">
     <g id="line2d_9">
      <path d="M 56.805938 243.406494 
L 559.005938 243.406494 
" clip-path="url(#p5fc759a0a5)" style="fill: none; stroke: #ffffff; stroke-linecap: round"/>
     </g>
     <g id="text_10">
      <!-- 0.09 -->
      <g style="fill: #262626" transform="translate(22.81375 247.585635) scale(0.11 -0.11)">
       <use xlink:href="#DejaVuSans-30"/>
       <use xlink:href="#DejaVuSans-2e" x="63.623047"/>
       <use xlink:href="#DejaVuSans-30" x="95.410156"/>
       <use xlink:href="#DejaVuSans-39" x="159.033203"/>
      </g>
     </g>
    </g>
    <g id="ytick_4">
     <g id="line2d_10">
      <path d="M 56.805938 206.977004 
L 559.005938 206.977004 
" clip-path="url(#p5fc759a0a5)" style="fill: none; stroke: #ffffff; stroke-linecap: round"/>
     </g>
     <g id="text_11">
      <!-- 0.10 -->
      <g style="fill: #262626" transform="translate(22.81375 211.156145) scale(0.11 -0.11)">
       <use xlink:href="#DejaVuSans-30"/>
       <use xlink:href="#DejaVuSans-2e" x="63.623047"/>
       <use xlink:href="#DejaVuSans-31" x="95.410156"/>
       <use xlink:href="#DejaVuSans-30" x="159.033203"/>
      </g>
     </g>
    </g>
    <g id="ytick_5">
     <g id="line2d_11">
      <path d="M 56.805938 170.547514 
L 559.005938 170.547514 
" clip-path="url(#p5fc759a0a5)" style="fill: none; stroke: #ffffff; stroke-linecap: round"/>
     </g>
     <g id="text_12">
      <!-- 0.11 -->
      <g style="fill: #262626" transform="translate(22.81375 174.726655) scale(0.11 -0.11)">
       <use xlink:href="#DejaVuSans-30"/>
       <use xlink:href="#DejaVuSans-2e" x="63.623047"/>
       <use xlink:href="#DejaVuSans-31" x="95.410156"/>
       <use xlink:href="#DejaVuSans-31" x="159.033203"/>
      </g>
     </g>
    </g>
    <g id="ytick_6">
     <g id="line2d_12">
      <path d="M 56.805938 134.118024 
L 559.005938 134.118024 
" clip-path="url(#p5fc759a0a5)" style="fill: none; stroke: #ffffff; stroke-linecap: round"/>
     </g>
     <g id="text_13">
      <!-- 0.12 -->
      <g style="fill: #262626" transform="translate(22.81375 138.297165) scale(0.11 -0.11)">
       <use xlink:href="#DejaVuSans-30"/>
       <use xlink:href="#DejaVuSans-2e" x="63.623047"/>
       <use xlink:href="#DejaVuSans-31" x="95.410156"/>
       <use xlink:href="#DejaVuSans-32" x="159.033203"/>
      </g>
     </g>
    </g>
    <g id="ytick_7">
     <g id="line2d_13">
      <path d="M 56.805938 97.688534 
L 559.005938 97.688534 
" clip-path="url(#p5fc759a0a5)" style="fill: none; stroke: #ffffff; stroke-linecap: round"/>
     </g>
     <g id="text_14">
      <!-- 0.13 -->
      <g style="fill: #262626" transform="translate(22.81375 101.867675) scale(0.11 -0.11)">
       <defs>
        <path id="DejaVuSans-33" d="M 2597 2516 
Q 3050 2419 3304 2112 
Q 3559 1806 3559 1356 
Q 3559 666 3084 287 
Q 2609 -91 1734 -91 
Q 1441 -91 1130 -33 
Q 819 25 488 141 
L 488 750 
Q 750 597 1062 519 
Q 1375 441 1716 441 
Q 2309 441 2620 675 
Q 2931 909 2931 1356 
Q 2931 1769 2642 2001 
Q 2353 2234 1838 2234 
L 1294 2234 
L 1294 2753 
L 1863 2753 
Q 2328 2753 2575 2939 
Q 2822 3125 2822 3475 
Q 2822 3834 2567 4026 
Q 2313 4219 1838 4219 
Q 1578 4219 1281 4162 
Q 984 4106 628 3988 
L 628 4550 
Q 988 4650 1302 4700 
Q 1616 4750 1894 4750 
Q 2613 4750 3031 4423 
Q 3450 4097 3450 3541 
Q 3450 3153 3228 2886 
Q 3006 2619 2597 2516 
z
" transform="scale(0.015625)"/>
       </defs>
       <use xlink:href="#DejaVuSans-30"/>
       <use xlink:href="#DejaVuSans-2e" x="63.623047"/>
       <use xlink:href="#DejaVuSans-31" x="95.410156"/>
       <use xlink:href="#DejaVuSans-33" x="159.033203"/>
      </g>
     </g>
    </g>
    <g id="ytick_8">
     <g id="line2d_14">
      <path d="M 56.805938 61.259045 
L 559.005938 61.259045 
" clip-path="url(#p5fc759a0a5)" style="fill: none; stroke: #ffffff; stroke-linecap: round"/>
     </g>
     <g id="text_15">
      <!-- 0.14 -->
      <g style="fill: #262626" transform="translate(22.81375 65.438185) scale(0.11 -0.11)">
       <use xlink:href="#DejaVuSans-30"/>
       <use xlink:href="#DejaVuSans-2e" x="63.623047"/>
       <use xlink:href="#DejaVuSans-31" x="95.410156"/>
       <use xlink:href="#DejaVuSans-34" x="159.033203"/>
      </g>
     </g>
    </g>
    <g id="ytick_9">
     <g id="line2d_15">
      <path d="M 56.805938 24.829555 
L 559.005938 24.829555 
" clip-path="url(#p5fc759a0a5)" style="fill: none; stroke: #ffffff; stroke-linecap: round"/>
     </g>
     <g id="text_16">
      <!-- 0.15 -->
      <g style="fill: #262626" transform="translate(22.81375 29.008695) scale(0.11 -0.11)">
       <defs>
        <path id="DejaVuSans-35" d="M 691 4666 
L 3169 4666 
L 3169 4134 
L 1269 4134 
L 1269 2991 
Q 1406 3038 1543 3061 
Q 1681 3084 1819 3084 
Q 2600 3084 3056 2656 
Q 3513 2228 3513 1497 
Q 3513 744 3044 326 
Q 2575 -91 1722 -91 
Q 1428 -91 1123 -41 
Q 819 9 494 109 
L 494 744 
Q 775 591 1075 516 
Q 1375 441 1709 441 
Q 2250 441 2565 725 
Q 2881 1009 2881 1497 
Q 2881 1984 2565 2268 
Q 2250 2553 1709 2553 
Q 1456 2553 1204 2497 
Q 953 2441 691 2322 
L 691 4666 
z
" transform="scale(0.015625)"/>
       </defs>
       <use xlink:href="#DejaVuSans-30"/>
       <use xlink:href="#DejaVuSans-2e" x="63.623047"/>
       <use xlink:href="#DejaVuSans-31" x="95.410156"/>
       <use xlink:href="#DejaVuSans-35" x="159.033203"/>
      </g>
     </g>
    </g>
    <g id="text_17">
     <!-- Mean entropy -->
     <g style="fill: #262626" transform="translate(16.318125 226.862812) rotate(-90) scale(0.12 -0.12)">
      <defs>
       <path id="DejaVuSans-4d" d="M 628 4666 
L 1569 4666 
L 2759 1491 
L 3956 4666 
L 4897 4666 
L 4897 0 
L 4281 0 
L 4281 4097 
L 3078 897 
L 2444 897 
L 1241 4097 
L 1241 0 
L 628 0 
L 628 4666 
z
" transform="scale(0.015625)"/>
       <path id="DejaVuSans-6e" d="M 3513 2113 
L 3513 0 
L 2938 0 
L 2938 2094 
Q 2938 2591 2744 2837 
Q 2550 3084 2163 3084 
Q 1697 3084 1428 2787 
Q 1159 2491 1159 1978 
L 1159 0 
L 581 0 
L 581 3500 
L 1159 3500 
L 1159 2956 
Q 1366 3272 1645 3428 
Q 1925 3584 2291 3584 
Q 2894 3584 3203 3211 
Q 3513 2838 3513 2113 
z
" transform="scale(0.015625)"/>
       <path id="DejaVuSans-20" transform="scale(0.015625)"/>
       <path id="DejaVuSans-72" d="M 2631 2963 
Q 2534 3019 2420 3045 
Q 2306 3072 2169 3072 
Q 1681 3072 1420 2755 
Q 1159 2438 1159 1844 
L 1159 0 
L 581 0 
L 581 3500 
L 1159 3500 
L 1159 2956 
Q 1341 3275 1631 3429 
Q 1922 3584 2338 3584 
Q 2397 3584 2469 3576 
Q 2541 3569 2628 3553 
L 2631 2963 
z
" transform="scale(0.015625)"/>
       <path id="DejaVuSans-6f" d="M 1959 3097 
Q 1497 3097 1228 2736 
Q 959 2375 959 1747 
Q 959 1119 1226 758 
Q 1494 397 1959 397 
Q 2419 397 2687 759 
Q 2956 1122 2956 1747 
Q 2956 2369 2687 2733 
Q 2419 3097 1959 3097 
z
M 1959 3584 
Q 2709 3584 3137 3096 
Q 3566 2609 3566 1747 
Q 3566 888 3137 398 
Q 2709 -91 1959 -91 
Q 1206 -91 779 398 
Q 353 888 353 1747 
Q 353 2609 779 3096 
Q 1206 3584 1959 3584 
z
" transform="scale(0.015625)"/>
       <path id="DejaVuSans-70" d="M 1159 525 
L 1159 -1331 
L 581 -1331 
L 581 3500 
L 1159 3500 
L 1159 2969 
Q 1341 3281 1617 3432 
Q 1894 3584 2278 3584 
Q 2916 3584 3314 3078 
Q 3713 2572 3713 1747 
Q 3713 922 3314 415 
Q 2916 -91 2278 -91 
Q 1894 -91 1617 61 
Q 1341 213 1159 525 
z
M 3116 1747 
Q 3116 2381 2855 2742 
Q 2594 3103 2138 3103 
Q 1681 3103 1420 2742 
Q 1159 2381 1159 1747 
Q 1159 1113 1420 752 
Q 1681 391 2138 391 
Q 2594 391 2855 752 
Q 3116 1113 3116 1747 
z
" transform="scale(0.015625)"/>
       <path id="DejaVuSans-79" d="M 2059 -325 
Q 1816 -950 1584 -1140 
Q 1353 -1331 966 -1331 
L 506 -1331 
L 506 -850 
L 844 -850 
Q 1081 -850 1212 -737 
Q 1344 -625 1503 -206 
L 1606 56 
L 191 3500 
L 800 3500 
L 1894 763 
L 2988 3500 
L 3597 3500 
L 2059 -325 
z
" transform="scale(0.015625)"/>
      </defs>
      <use xlink:href="#DejaVuSans-4d"/>
      <use xlink:href="#DejaVuSans-65" x="86.279297"/>
      <use xlink:href="#DejaVuSans-61" x="147.802734"/>
      <use xlink:href="#DejaVuSans-6e" x="209.082031"/>
      <use xlink:href="#DejaVuSans-20" x="272.460938"/>
      <use xlink:href="#DejaVuSans-65" x="304.248047"/>
      <use xlink:href="#DejaVuSans-6e" x="365.771484"/>
      <use xlink:href="#DejaVuSans-74" x="429.150391"/>
      <use xlink:href="#DejaVuSans-72" x="468.359375"/>
      <use xlink:href="#DejaVuSans-6f" x="507.222656"/>
      <use xlink:href="#DejaVuSans-70" x="568.404297"/>
      <use xlink:href="#DejaVuSans-79" x="631.880859"/>
     </g>
    </g>
   </g>
   <g id="PolyCollection_1">
    <defs>
     <path id="mbfa44a51c8" d="M 79.63321 -133.186643 
L 79.63321 -71.754756 
L 84.24478 -74.168586 
L 88.856351 -76.487731 
L 93.467921 -78.771257 
L 98.079491 -81.19532 
L 102.691061 -83.405268 
L 107.302632 -85.445774 
L 111.914202 -87.197401 
L 116.525772 -88.54886 
L 121.137342 -90.063644 
L 125.748913 -91.876123 
L 130.360483 -93.601556 
L 134.972053 -94.600578 
L 139.583623 -95.646191 
L 144.195194 -96.595898 
L 148.806764 -97.415754 
L 153.418334 -97.984556 
L 158.029904 -98.271928 
L 162.641475 -98.845517 
L 167.253045 -99.318984 
L 171.864615 -100.023512 
L 176.476185 -100.161551 
L 181.087756 -100.707443 
L 185.699326 -101.268733 
L 190.310896 -101.370031 
L 194.922466 -101.640124 
L 199.534037 -102.142093 
L 204.145607 -102.610479 
L 208.757177 -103.099034 
L 213.368747 -103.474658 
L 217.980318 -103.994035 
L 222.591888 -104.118189 
L 227.203458 -104.352212 
L 231.815028 -104.83821 
L 236.426599 -105.375234 
L 241.038169 -105.955246 
L 245.649739 -106.561767 
L 250.261309 -107.299847 
L 254.87288 -107.827162 
L 259.48445 -108.663848 
L 264.09602 -109.161274 
L 268.70759 -109.614576 
L 273.319161 -109.887216 
L 277.930731 -110.591284 
L 282.542301 -111.104022 
L 287.153871 -111.324126 
L 291.765442 -111.660277 
L 296.377012 -111.777107 
L 300.988582 -112.103875 
L 305.600152 -112.492304 
L 310.211723 -112.8213 
L 314.823293 -113.021601 
L 319.434863 -113.032228 
L 324.046433 -113.201926 
L 328.658004 -113.352499 
L 333.269574 -113.421492 
L 337.881144 -113.56061 
L 342.492714 -113.643689 
L 347.104285 -113.461739 
L 351.715855 -113.598251 
L 356.327425 -113.765492 
L 360.938995 -113.801083 
L 365.550566 -113.793876 
L 370.162136 -113.712488 
L 374.773706 -113.752184 
L 379.385276 -113.65848 
L 383.996847 -113.723237 
L 388.608417 -113.467106 
L 393.219987 -113.344932 
L 397.831557 -113.282956 
L 402.443128 -113.544501 
L 407.054698 -113.535828 
L 411.666268 -113.484366 
L 416.277838 -113.317912 
L 420.889409 -113.123695 
L 425.500979 -112.947535 
L 430.112549 -112.790095 
L 434.724119 -112.50233 
L 439.33569 -111.996423 
L 443.94726 -111.328171 
L 448.55883 -110.864319 
L 453.1704 -109.980481 
L 457.781971 -108.704088 
L 462.393541 -107.23661 
L 467.005111 -106.14309 
L 471.616681 -105.031518 
L 476.228252 -103.504427 
L 480.839822 -101.265166 
L 485.451392 -98.870553 
L 490.062962 -96.532491 
L 494.674533 -94.095921 
L 499.286103 -91.426463 
L 503.897673 -88.72053 
L 508.509243 -85.418696 
L 513.120814 -82.202153 
L 517.732384 -78.603517 
L 522.343954 -74.913834 
L 526.955524 -71.243148 
L 531.567095 -67.835453 
L 536.178665 -63.668615 
L 536.178665 -187.686544 
L 536.178665 -187.686544 
L 531.567095 -184.527254 
L 526.955524 -181.03048 
L 522.343954 -177.303253 
L 517.732384 -173.378908 
L 513.120814 -170.633101 
L 508.509243 -168.23449 
L 503.897673 -166.235391 
L 499.286103 -164.310217 
L 494.674533 -162.097157 
L 490.062962 -161.459473 
L 485.451392 -159.240839 
L 480.839822 -157.590016 
L 476.228252 -156.699085 
L 471.616681 -154.1962 
L 467.005111 -153.282684 
L 462.393541 -151.717143 
L 457.781971 -150.605482 
L 453.1704 -150.148826 
L 448.55883 -149.657748 
L 443.94726 -148.973142 
L 439.33569 -148.078355 
L 434.724119 -147.427808 
L 430.112549 -146.659656 
L 425.500979 -146.305616 
L 420.889409 -145.605289 
L 416.277838 -144.837041 
L 411.666268 -143.999541 
L 407.054698 -143.507009 
L 402.443128 -143.253003 
L 397.831557 -143.198423 
L 393.219987 -143.023894 
L 388.608417 -142.609326 
L 383.996847 -142.649777 
L 379.385276 -142.248028 
L 374.773706 -141.968479 
L 370.162136 -141.634881 
L 365.550566 -141.206316 
L 360.938995 -140.789306 
L 356.327425 -140.369375 
L 351.715855 -139.866021 
L 347.104285 -139.521462 
L 342.492714 -138.918282 
L 337.881144 -138.401434 
L 333.269574 -138.074854 
L 328.658004 -137.721855 
L 324.046433 -137.313884 
L 319.434863 -136.879366 
L 314.823293 -136.466703 
L 310.211723 -136.003946 
L 305.600152 -135.458853 
L 300.988582 -134.904339 
L 296.377012 -134.366945 
L 291.765442 -133.941818 
L 287.153871 -133.332243 
L 282.542301 -132.498802 
L 277.930731 -132.03111 
L 273.319161 -131.634746 
L 268.70759 -131.263925 
L 264.09602 -130.681027 
L 259.48445 -130.103584 
L 254.87288 -129.792554 
L 250.261309 -129.32027 
L 245.649739 -128.735324 
L 241.038169 -127.965006 
L 236.426599 -127.72601 
L 231.815028 -127.3105 
L 227.203458 -126.888927 
L 222.591888 -126.564442 
L 217.980318 -126.185066 
L 213.368747 -125.928539 
L 208.757177 -125.755593 
L 204.145607 -125.445001 
L 199.534037 -125.277918 
L 194.922466 -124.865305 
L 190.310896 -124.616992 
L 185.699326 -124.054745 
L 181.087756 -123.602609 
L 176.476185 -123.03427 
L 171.864615 -122.617766 
L 167.253045 -122.359474 
L 162.641475 -121.822457 
L 158.029904 -121.535991 
L 153.418334 -121.170675 
L 148.806764 -120.778188 
L 144.195194 -120.731021 
L 139.583623 -120.699285 
L 134.972053 -120.82871 
L 130.360483 -121.127024 
L 125.748913 -121.277755 
L 121.137342 -121.667202 
L 116.525772 -122.049318 
L 111.914202 -123.062501 
L 107.302632 -124.132139 
L 102.691061 -125.302459 
L 98.079491 -126.124415 
L 93.467921 -127.341017 
L 88.856351 -129.474562 
L 84.24478 -131.22497 
L 79.63321 -133.186643 
z
" style="stroke: #ffffff; stroke-opacity: 0.15"/>
    </defs>
    <g clip-path="url(#p5fc759a0a5)">
     <use xlink:href="#mbfa44a51c8" x="0" y="391.437812" style="fill: #0000ff; fill-opacity: 0.15; stroke: #ffffff; stroke-opacity: 0.15"/>
    </g>
   </g>
   <g id="PolyCollection_2">
    <defs>
     <path id="mcc401f2e85" d="M 79.63321 -354.294233 
L 79.63321 -57.785142 
L 84.24478 -62.366828 
L 88.856351 -67.128073 
L 93.467921 -71.76784 
L 98.079491 -76.240153 
L 102.691061 -80.012595 
L 107.302632 -84.121431 
L 111.914202 -87.175116 
L 116.525772 -90.463039 
L 121.137342 -93.339443 
L 125.748913 -96.339062 
L 130.360483 -98.632578 
L 134.972053 -101.141613 
L 139.583623 -103.385859 
L 144.195194 -105.500146 
L 148.806764 -107.578516 
L 153.418334 -108.559109 
L 158.029904 -110.263191 
L 162.641475 -112.221595 
L 167.253045 -113.69011 
L 171.864615 -114.743284 
L 176.476185 -115.635426 
L 181.087756 -116.286143 
L 185.699326 -116.993769 
L 190.310896 -117.72996 
L 194.922466 -118.379419 
L 199.534037 -119.33334 
L 204.145607 -119.779647 
L 208.757177 -120.502979 
L 213.368747 -120.805911 
L 217.980318 -121.367889 
L 222.591888 -121.804706 
L 227.203458 -121.882116 
L 231.815028 -122.081649 
L 236.426599 -121.62944 
L 241.038169 -121.79204 
L 245.649739 -121.635947 
L 250.261309 -121.93473 
L 254.87288 -120.848322 
L 259.48445 -120.79294 
L 264.09602 -120.448903 
L 268.70759 -120.484297 
L 273.319161 -120.631415 
L 277.930731 -120.506525 
L 282.542301 -120.346982 
L 287.153871 -120.356679 
L 291.765442 -120.360789 
L 296.377012 -120.393977 
L 300.988582 -120.02431 
L 305.600152 -119.983047 
L 310.211723 -119.848086 
L 314.823293 -119.687872 
L 319.434863 -119.697606 
L 324.046433 -119.424986 
L 328.658004 -119.215211 
L 333.269574 -119.409505 
L 337.881144 -119.420398 
L 342.492714 -119.599548 
L 347.104285 -119.377117 
L 351.715855 -119.498445 
L 356.327425 -119.222898 
L 360.938995 -118.897059 
L 365.550566 -118.439264 
L 370.162136 -118.082715 
L 374.773706 -117.439977 
L 379.385276 -116.646712 
L 383.996847 -115.883199 
L 388.608417 -115.632191 
L 393.219987 -115.511213 
L 397.831557 -115.163553 
L 402.443128 -114.741385 
L 407.054698 -114.226962 
L 411.666268 -113.823062 
L 416.277838 -113.483084 
L 420.889409 -113.475468 
L 425.500979 -113.368142 
L 430.112549 -113.284158 
L 434.724119 -113.032284 
L 439.33569 -113.208074 
L 443.94726 -112.946771 
L 448.55883 -112.696917 
L 453.1704 -112.257956 
L 457.781971 -111.780696 
L 462.393541 -111.682991 
L 467.005111 -111.233512 
L 471.616681 -111.178016 
L 476.228252 -110.864208 
L 480.839822 -110.286474 
L 485.451392 -109.408811 
L 490.062962 -108.448479 
L 494.674533 -108.215078 
L 499.286103 -106.938823 
L 503.897673 -104.925568 
L 508.509243 -103.094307 
L 513.120814 -100.701642 
L 517.732384 -97.538375 
L 522.343954 -94.829033 
L 526.955524 -90.913293 
L 531.567095 -87.359263 
L 536.178665 -83.854279 
L 536.178665 -160.990038 
L 536.178665 -160.990038 
L 531.567095 -158.943548 
L 526.955524 -156.049215 
L 522.343954 -154.221259 
L 517.732384 -152.799158 
L 513.120814 -151.766558 
L 508.509243 -150.377509 
L 503.897673 -148.363105 
L 499.286103 -148.696207 
L 494.674533 -148.469393 
L 490.062962 -148.045797 
L 485.451392 -148.013751 
L 480.839822 -148.510846 
L 476.228252 -149.050418 
L 471.616681 -149.279755 
L 467.005111 -149.162376 
L 462.393541 -149.674323 
L 457.781971 -150.223041 
L 453.1704 -150.204911 
L 448.55883 -150.725513 
L 443.94726 -151.031073 
L 439.33569 -151.209856 
L 434.724119 -152.444595 
L 430.112549 -152.447152 
L 425.500979 -152.497524 
L 420.889409 -152.722969 
L 416.277838 -153.08925 
L 411.666268 -153.312122 
L 407.054698 -153.339945 
L 402.443128 -153.102197 
L 397.831557 -152.993534 
L 393.219987 -153.370392 
L 388.608417 -153.129128 
L 383.996847 -153.646729 
L 379.385276 -153.703088 
L 374.773706 -153.534636 
L 370.162136 -153.442357 
L 365.550566 -153.377727 
L 360.938995 -153.716842 
L 356.327425 -154.127963 
L 351.715855 -154.178591 
L 347.104285 -154.191714 
L 342.492714 -154.318587 
L 337.881144 -154.367119 
L 333.269574 -154.415716 
L 328.658004 -154.42895 
L 324.046433 -154.932497 
L 319.434863 -155.471986 
L 314.823293 -155.682905 
L 310.211723 -156.21709 
L 305.600152 -156.945372 
L 300.988582 -157.364269 
L 296.377012 -157.393157 
L 291.765442 -158.17559 
L 287.153871 -158.807763 
L 282.542301 -159.641923 
L 277.930731 -160.651579 
L 273.319161 -161.616431 
L 268.70759 -162.571596 
L 264.09602 -163.411042 
L 259.48445 -164.360692 
L 254.87288 -164.869273 
L 250.261309 -165.436791 
L 245.649739 -166.518122 
L 241.038169 -167.613956 
L 236.426599 -168.984213 
L 231.815028 -169.890185 
L 227.203458 -171.136077 
L 222.591888 -173.192137 
L 217.980318 -174.813065 
L 213.368747 -176.375854 
L 208.757177 -178.564823 
L 204.145607 -181.055372 
L 199.534037 -183.572157 
L 194.922466 -186.500494 
L 190.310896 -188.096773 
L 185.699326 -192.969123 
L 181.087756 -195.703484 
L 176.476185 -199.225619 
L 171.864615 -203.54992 
L 167.253045 -206.635488 
L 162.641475 -212.99004 
L 158.029904 -218.729388 
L 153.418334 -223.125941 
L 148.806764 -229.759298 
L 144.195194 -237.195598 
L 139.583623 -242.251122 
L 134.972053 -249.153348 
L 130.360483 -253.308698 
L 125.748913 -257.421828 
L 121.137342 -264.974097 
L 116.525772 -272.547205 
L 111.914202 -283.866194 
L 107.302632 -292.330983 
L 102.691061 -300.300087 
L 98.079491 -313.056471 
L 93.467921 -324.011372 
L 88.856351 -333.898697 
L 84.24478 -343.947689 
L 79.63321 -354.294233 
z
" style="stroke: #ffffff; stroke-opacity: 0.15"/>
    </defs>
    <g clip-path="url(#p5fc759a0a5)">
     <use xlink:href="#mcc401f2e85" x="0" y="391.437812" style="fill: #ff0000; fill-opacity: 0.15; stroke: #ffffff; stroke-opacity: 0.15"/>
    </g>
   </g>
   <g id="line2d_16">
    <path d="M 79.63321 286.765595 
L 84.24478 286.592422 
L 88.856351 286.400869 
L 93.467921 286.19153 
L 98.079491 285.964995 
L 102.691061 285.721857 
L 107.302632 285.462707 
L 111.914202 285.188137 
L 116.525772 284.898739 
L 121.137342 284.595104 
L 125.748913 284.277824 
L 130.360483 283.947492 
L 134.972053 283.604697 
L 139.583623 283.250033 
L 144.195194 282.884091 
L 148.806764 282.507463 
L 153.418334 282.12074 
L 158.029904 281.724515 
L 162.641475 281.319378 
L 167.253045 280.905923 
L 171.864615 280.484739 
L 176.476185 280.05642 
L 181.087756 279.621557 
L 185.699326 279.180741 
L 190.310896 278.734564 
L 194.922466 278.283619 
L 199.534037 277.828496 
L 204.145607 277.369788 
L 208.757177 276.908086 
L 213.368747 276.443982 
L 217.980318 275.978068 
L 222.591888 275.510936 
L 227.203458 275.043176 
L 231.815028 274.575381 
L 236.426599 274.108143 
L 241.038169 273.642054 
L 245.649739 273.177704 
L 250.261309 272.715686 
L 254.87288 272.256592 
L 259.48445 271.801013 
L 264.09602 271.349541 
L 268.70759 270.902768 
L 273.319161 270.461285 
L 277.930731 270.025684 
L 282.542301 269.596557 
L 287.153871 269.174496 
L 291.765442 268.760093 
L 296.377012 268.353938 
L 300.988582 267.956624 
L 305.600152 267.568743 
L 310.211723 267.190886 
L 314.823293 266.823645 
L 319.434863 266.467612 
L 324.046433 266.123378 
L 328.658004 265.791536 
L 333.269574 265.472676 
L 337.881144 265.167391 
L 342.492714 264.876272 
L 347.104285 264.599912 
L 351.715855 264.338901 
L 356.327425 264.093832 
L 360.938995 263.865297 
L 365.550566 263.653886 
L 370.162136 263.460192 
L 374.773706 263.284807 
L 379.385276 263.128321 
L 383.996847 262.991328 
L 388.608417 262.874418 
L 393.219987 262.778184 
L 397.831557 262.703217 
L 402.443128 262.650109 
L 407.054698 262.619451 
L 411.666268 262.611836 
L 416.277838 262.627855 
L 420.889409 262.6681 
L 425.500979 262.733162 
L 430.112549 262.823633 
L 434.724119 262.940105 
L 439.33569 263.08317 
L 443.94726 263.25342 
L 448.55883 263.451445 
L 453.1704 263.677839 
L 457.781971 263.933192 
L 462.393541 264.218096 
L 467.005111 264.533143 
L 471.616681 264.878926 
L 476.228252 265.256034 
L 480.839822 265.665062 
L 485.451392 266.106599 
L 490.062962 266.581237 
L 494.674533 267.089569 
L 499.286103 267.632187 
L 503.897673 268.209681 
L 508.509243 268.822644 
L 513.120814 269.471667 
L 517.732384 270.157343 
L 522.343954 270.880262 
L 526.955524 271.641016 
L 531.567095 272.440198 
L 536.178665 273.278399 
" clip-path="url(#p5fc759a0a5)" style="fill: none; stroke: #0000ff; stroke-width: 2.25; stroke-linecap: round"/>
   </g>
   <g id="line2d_17">
    <path d="M 79.63321 228.532923 
L 84.24478 229.385596 
L 88.856351 230.218644 
L 93.467921 231.032371 
L 98.079491 231.827081 
L 102.691061 232.603078 
L 107.302632 233.360666 
L 111.914202 234.10015 
L 116.525772 234.821832 
L 121.137342 235.526019 
L 125.748913 236.213012 
L 130.360483 236.883118 
L 134.972053 237.536639 
L 139.583623 238.17388 
L 144.195194 238.795145 
L 148.806764 239.400738 
L 153.418334 239.990963 
L 158.029904 240.566125 
L 162.641475 241.126527 
L 167.253045 241.672473 
L 171.864615 242.204268 
L 176.476185 242.722216 
L 181.087756 243.22662 
L 185.699326 243.717785 
L 190.310896 244.196016 
L 194.922466 244.661615 
L 199.534037 245.114888 
L 204.145607 245.556138 
L 208.757177 245.985669 
L 213.368747 246.403786 
L 217.980318 246.810792 
L 222.591888 247.206992 
L 227.203458 247.59269 
L 231.815028 247.96819 
L 236.426599 248.333795 
L 241.038169 248.689811 
L 245.649739 249.036541 
L 250.261309 249.37429 
L 254.87288 249.70336 
L 259.48445 250.024058 
L 264.09602 250.336686 
L 268.70759 250.641548 
L 273.319161 250.93895 
L 277.930731 251.229194 
L 282.542301 251.512586 
L 287.153871 251.789428 
L 291.765442 252.060026 
L 296.377012 252.324683 
L 300.988582 252.583703 
L 305.600152 252.837391 
L 310.211723 253.086051 
L 314.823293 253.329986 
L 319.434863 253.569502 
L 324.046433 253.804901 
L 328.658004 254.036488 
L 333.269574 254.264567 
L 337.881144 254.489443 
L 342.492714 254.711419 
L 347.104285 254.930799 
L 351.715855 255.147888 
L 356.327425 255.36299 
L 360.938995 255.576408 
L 365.550566 255.788447 
L 370.162136 255.999412 
L 374.773706 256.209605 
L 379.385276 256.419331 
L 383.996847 256.628895 
L 388.608417 256.8386 
L 393.219987 257.04875 
L 397.831557 257.25965 
L 402.443128 257.471604 
L 407.054698 257.684915 
L 411.666268 257.899889 
L 416.277838 258.116828 
L 420.889409 258.336037 
L 425.500979 258.557821 
L 430.112549 258.782483 
L 434.724119 259.010327 
L 439.33569 259.241658 
L 443.94726 259.476779 
L 448.55883 259.715995 
L 453.1704 259.95961 
L 457.781971 260.207927 
L 462.393541 260.461252 
L 467.005111 260.719888 
L 471.616681 260.984138 
L 476.228252 261.254309 
L 480.839822 261.530702 
L 485.451392 261.813623 
L 490.062962 262.103376 
L 494.674533 262.400265 
L 499.286103 262.704593 
L 503.897673 263.016665 
L 508.509243 263.336785 
L 513.120814 263.665257 
L 517.732384 264.002386 
L 522.343954 264.348474 
L 526.955524 264.703828 
L 531.567095 265.068749 
L 536.178665 265.443544 
" clip-path="url(#p5fc759a0a5)" style="fill: none; stroke: #ff0000; stroke-width: 2.25; stroke-linecap: round"/>
   </g>
   <g id="patch_3">
    <path d="M 56.805938 348.478125 
L 56.805938 22.318125 
" style="fill: none; stroke: #ffffff; stroke-width: 1.25; stroke-linejoin: miter; stroke-linecap: square"/>
   </g>
   <g id="patch_4">
    <path d="M 559.005938 348.478125 
L 559.005938 22.318125 
" style="fill: none; stroke: #ffffff; stroke-width: 1.25; stroke-linejoin: miter; stroke-linecap: square"/>
   </g>
   <g id="patch_5">
    <path d="M 56.805938 348.478125 
L 559.005938 348.478125 
" style="fill: none; stroke: #ffffff; stroke-width: 1.25; stroke-linejoin: miter; stroke-linecap: square"/>
   </g>
   <g id="patch_6">
    <path d="M 56.805938 22.318125 
L 559.005938 22.318125 
" style="fill: none; stroke: #ffffff; stroke-width: 1.25; stroke-linejoin: miter; stroke-linecap: square"/>
   </g>
   <g id="text_18">
    <!-- Mean influence per birth year in our novels, broken out by canonicity tag -->
    <g style="fill: #262626" transform="translate(88.485938 16.318125) scale(0.12 -0.12)">
     <defs>
      <path id="DejaVuSans-69" d="M 603 3500 
L 1178 3500 
L 1178 0 
L 603 0 
L 603 3500 
z
M 603 4863 
L 1178 4863 
L 1178 4134 
L 603 4134 
L 603 4863 
z
" transform="scale(0.015625)"/>
      <path id="DejaVuSans-66" d="M 2375 4863 
L 2375 4384 
L 1825 4384 
Q 1516 4384 1395 4259 
Q 1275 4134 1275 3809 
L 1275 3500 
L 2222 3500 
L 2222 3053 
L 1275 3053 
L 1275 0 
L 697 0 
L 697 3053 
L 147 3053 
L 147 3500 
L 697 3500 
L 697 3744 
Q 697 4328 969 4595 
Q 1241 4863 1831 4863 
L 2375 4863 
z
" transform="scale(0.015625)"/>
      <path id="DejaVuSans-6c" d="M 603 4863 
L 1178 4863 
L 1178 0 
L 603 0 
L 603 4863 
z
" transform="scale(0.015625)"/>
      <path id="DejaVuSans-75" d="M 544 1381 
L 544 3500 
L 1119 3500 
L 1119 1403 
Q 1119 906 1312 657 
Q 1506 409 1894 409 
Q 2359 409 2629 706 
Q 2900 1003 2900 1516 
L 2900 3500 
L 3475 3500 
L 3475 0 
L 2900 0 
L 2900 538 
Q 2691 219 2414 64 
Q 2138 -91 1772 -91 
Q 1169 -91 856 284 
Q 544 659 544 1381 
z
M 1991 3584 
L 1991 3584 
z
" transform="scale(0.015625)"/>
      <path id="DejaVuSans-63" d="M 3122 3366 
L 3122 2828 
Q 2878 2963 2633 3030 
Q 2388 3097 2138 3097 
Q 1578 3097 1268 2742 
Q 959 2388 959 1747 
Q 959 1106 1268 751 
Q 1578 397 2138 397 
Q 2388 397 2633 464 
Q 2878 531 3122 666 
L 3122 134 
Q 2881 22 2623 -34 
Q 2366 -91 2075 -91 
Q 1284 -91 818 406 
Q 353 903 353 1747 
Q 353 2603 823 3093 
Q 1294 3584 2113 3584 
Q 2378 3584 2631 3529 
Q 2884 3475 3122 3366 
z
" transform="scale(0.015625)"/>
      <path id="DejaVuSans-62" d="M 3116 1747 
Q 3116 2381 2855 2742 
Q 2594 3103 2138 3103 
Q 1681 3103 1420 2742 
Q 1159 2381 1159 1747 
Q 1159 1113 1420 752 
Q 1681 391 2138 391 
Q 2594 391 2855 752 
Q 3116 1113 3116 1747 
z
M 1159 2969 
Q 1341 3281 1617 3432 
Q 1894 3584 2278 3584 
Q 2916 3584 3314 3078 
Q 3713 2572 3713 1747 
Q 3713 922 3314 415 
Q 2916 -91 2278 -91 
Q 1894 -91 1617 61 
Q 1341 213 1159 525 
L 1159 0 
L 581 0 
L 581 4863 
L 1159 4863 
L 1159 2969 
z
" transform="scale(0.015625)"/>
      <path id="DejaVuSans-68" d="M 3513 2113 
L 3513 0 
L 2938 0 
L 2938 2094 
Q 2938 2591 2744 2837 
Q 2550 3084 2163 3084 
Q 1697 3084 1428 2787 
Q 1159 2491 1159 1978 
L 1159 0 
L 581 0 
L 581 4863 
L 1159 4863 
L 1159 2956 
Q 1366 3272 1645 3428 
Q 1925 3584 2291 3584 
Q 2894 3584 3203 3211 
Q 3513 2838 3513 2113 
z
" transform="scale(0.015625)"/>
      <path id="DejaVuSans-76" d="M 191 3500 
L 800 3500 
L 1894 563 
L 2988 3500 
L 3597 3500 
L 2284 0 
L 1503 0 
L 191 3500 
z
" transform="scale(0.015625)"/>
      <path id="DejaVuSans-2c" d="M 750 794 
L 1409 794 
L 1409 256 
L 897 -744 
L 494 -744 
L 750 256 
L 750 794 
z
" transform="scale(0.015625)"/>
      <path id="DejaVuSans-6b" d="M 581 4863 
L 1159 4863 
L 1159 1991 
L 2875 3500 
L 3609 3500 
L 1753 1863 
L 3688 0 
L 2938 0 
L 1159 1709 
L 1159 0 
L 581 0 
L 581 4863 
z
" transform="scale(0.015625)"/>
      <path id="DejaVuSans-67" d="M 2906 1791 
Q 2906 2416 2648 2759 
Q 2391 3103 1925 3103 
Q 1463 3103 1205 2759 
Q 947 2416 947 1791 
Q 947 1169 1205 825 
Q 1463 481 1925 481 
Q 2391 481 2648 825 
Q 2906 1169 2906 1791 
z
M 3481 434 
Q 3481 -459 3084 -895 
Q 2688 -1331 1869 -1331 
Q 1566 -1331 1297 -1286 
Q 1028 -1241 775 -1147 
L 775 -588 
Q 1028 -725 1275 -790 
Q 1522 -856 1778 -856 
Q 2344 -856 2625 -561 
Q 2906 -266 2906 331 
L 2906 616 
Q 2728 306 2450 153 
Q 2172 0 1784 0 
Q 1141 0 747 490 
Q 353 981 353 1791 
Q 353 2603 747 3093 
Q 1141 3584 1784 3584 
Q 2172 3584 2450 3431 
Q 2728 3278 2906 2969 
L 2906 3500 
L 3481 3500 
L 3481 434 
z
" transform="scale(0.015625)"/>
     </defs>
     <use xlink:href="#DejaVuSans-4d"/>
     <use xlink:href="#DejaVuSans-65" x="86.279297"/>
     <use xlink:href="#DejaVuSans-61" x="147.802734"/>
     <use xlink:href="#DejaVuSans-6e" x="209.082031"/>
     <use xlink:href="#DejaVuSans-20" x="272.460938"/>
     <use xlink:href="#DejaVuSans-69" x="304.248047"/>
     <use xlink:href="#DejaVuSans-6e" x="332.03125"/>
     <use xlink:href="#DejaVuSans-66" x="395.410156"/>
     <use xlink:href="#DejaVuSans-6c" x="430.615234"/>
     <use xlink:href="#DejaVuSans-75" x="458.398438"/>
     <use xlink:href="#DejaVuSans-65" x="521.777344"/>
     <use xlink:href="#DejaVuSans-6e" x="583.300781"/>
     <use xlink:href="#DejaVuSans-63" x="646.679688"/>
     <use xlink:href="#DejaVuSans-65" x="701.660156"/>
     <use xlink:href="#DejaVuSans-20" x="763.183594"/>
     <use xlink:href="#DejaVuSans-70" x="794.970703"/>
     <use xlink:href="#DejaVuSans-65" x="858.447266"/>
     <use xlink:href="#DejaVuSans-72" x="919.970703"/>
     <use xlink:href="#DejaVuSans-20" x="961.083984"/>
     <use xlink:href="#DejaVuSans-62" x="992.871094"/>
     <use xlink:href="#DejaVuSans-69" x="1056.347656"/>
     <use xlink:href="#DejaVuSans-72" x="1084.130859"/>
     <use xlink:href="#DejaVuSans-74" x="1125.244141"/>
     <use xlink:href="#DejaVuSans-68" x="1164.453125"/>
     <use xlink:href="#DejaVuSans-20" x="1227.832031"/>
     <use xlink:href="#DejaVuSans-79" x="1259.619141"/>
     <use xlink:href="#DejaVuSans-65" x="1318.798828"/>
     <use xlink:href="#DejaVuSans-61" x="1380.322266"/>
     <use xlink:href="#DejaVuSans-72" x="1441.601562"/>
     <use xlink:href="#DejaVuSans-20" x="1482.714844"/>
     <use xlink:href="#DejaVuSans-69" x="1514.501953"/>
     <use xlink:href="#DejaVuSans-6e" x="1542.285156"/>
     <use xlink:href="#DejaVuSans-20" x="1605.664062"/>
     <use xlink:href="#DejaVuSans-6f" x="1637.451172"/>
     <use xlink:href="#DejaVuSans-75" x="1698.632812"/>
     <use xlink:href="#DejaVuSans-72" x="1762.011719"/>
     <use xlink:href="#DejaVuSans-20" x="1803.125"/>
     <use xlink:href="#DejaVuSans-6e" x="1834.912109"/>
     <use xlink:href="#DejaVuSans-6f" x="1898.291016"/>
     <use xlink:href="#DejaVuSans-76" x="1959.472656"/>
     <use xlink:href="#DejaVuSans-65" x="2018.652344"/>
     <use xlink:href="#DejaVuSans-6c" x="2080.175781"/>
     <use xlink:href="#DejaVuSans-73" x="2107.958984"/>
     <use xlink:href="#DejaVuSans-2c" x="2160.058594"/>
     <use xlink:href="#DejaVuSans-20" x="2191.845703"/>
     <use xlink:href="#DejaVuSans-62" x="2223.632812"/>
     <use xlink:href="#DejaVuSans-72" x="2287.109375"/>
     <use xlink:href="#DejaVuSans-6f" x="2325.972656"/>
     <use xlink:href="#DejaVuSans-6b" x="2387.154297"/>
     <use xlink:href="#DejaVuSans-65" x="2441.439453"/>
     <use xlink:href="#DejaVuSans-6e" x="2502.962891"/>
     <use xlink:href="#DejaVuSans-20" x="2566.341797"/>
     <use xlink:href="#DejaVuSans-6f" x="2598.128906"/>
     <use xlink:href="#DejaVuSans-75" x="2659.310547"/>
     <use xlink:href="#DejaVuSans-74" x="2722.689453"/>
     <use xlink:href="#DejaVuSans-20" x="2761.898438"/>
     <use xlink:href="#DejaVuSans-62" x="2793.685547"/>
     <use xlink:href="#DejaVuSans-79" x="2857.162109"/>
     <use xlink:href="#DejaVuSans-20" x="2916.341797"/>
     <use xlink:href="#DejaVuSans-63" x="2948.128906"/>
     <use xlink:href="#DejaVuSans-61" x="3003.109375"/>
     <use xlink:href="#DejaVuSans-6e" x="3064.388672"/>
     <use xlink:href="#DejaVuSans-6f" x="3127.767578"/>
     <use xlink:href="#DejaVuSans-6e" x="3188.949219"/>
     <use xlink:href="#DejaVuSans-69" x="3252.328125"/>
     <use xlink:href="#DejaVuSans-63" x="3280.111328"/>
     <use xlink:href="#DejaVuSans-69" x="3335.091797"/>
     <use xlink:href="#DejaVuSans-74" x="3362.875"/>
     <use xlink:href="#DejaVuSans-79" x="3402.083984"/>
     <use xlink:href="#DejaVuSans-20" x="3461.263672"/>
     <use xlink:href="#DejaVuSans-74" x="3493.050781"/>
     <use xlink:href="#DejaVuSans-61" x="3532.259766"/>
     <use xlink:href="#DejaVuSans-67" x="3593.539062"/>
    </g>
   </g>
   <g id="legend_1">
    <g id="patch_7">
     <path d="M 573.005938 97.586875 
L 745.434063 97.586875 
Q 749.434063 97.586875 749.434063 93.586875 
L 749.434063 36.318125 
Q 749.434063 32.318125 745.434063 32.318125 
L 573.005938 32.318125 
Q 569.005938 32.318125 569.005938 36.318125 
L 569.005938 93.586875 
Q 569.005938 97.586875 573.005938 97.586875 
z
" style="fill: #eaeaf2; opacity: 0.8; stroke: #cccccc; stroke-linejoin: miter"/>
    </g>
    <g id="line2d_18">
     <path d="M 577.005938 48.515 
L 597.005938 48.515 
L 617.005938 48.515 
" style="fill: none; stroke: #0000ff; stroke-width: 2.25; stroke-linecap: round"/>
    </g>
    <g id="text_19">
     <!-- non_canon -->
     <g style="fill: #262626" transform="translate(633.005938 55.515) scale(0.2 -0.2)">
      <defs>
       <path id="DejaVuSans-5f" d="M 3263 -1063 
L 3263 -1509 
L -63 -1509 
L -63 -1063 
L 3263 -1063 
z
" transform="scale(0.015625)"/>
      </defs>
      <use xlink:href="#DejaVuSans-6e"/>
      <use xlink:href="#DejaVuSans-6f" x="63.378906"/>
      <use xlink:href="#DejaVuSans-6e" x="124.560547"/>
      <use xlink:href="#DejaVuSans-5f" x="187.939453"/>
      <use xlink:href="#DejaVuSans-63" x="237.939453"/>
      <use xlink:href="#DejaVuSans-61" x="292.919922"/>
      <use xlink:href="#DejaVuSans-6e" x="354.199219"/>
      <use xlink:href="#DejaVuSans-6f" x="417.578125"/>
      <use xlink:href="#DejaVuSans-6e" x="478.759766"/>
     </g>
    </g>
    <g id="line2d_19">
     <path d="M 577.005938 78.4275 
L 597.005938 78.4275 
L 617.005938 78.4275 
" style="fill: none; stroke: #ff0000; stroke-width: 2.25; stroke-linecap: round"/>
    </g>
    <g id="text_20">
     <!-- canon -->
     <g style="fill: #262626" transform="translate(633.005938 85.4275) scale(0.2 -0.2)">
      <use xlink:href="#DejaVuSans-63"/>
      <use xlink:href="#DejaVuSans-61" x="54.980469"/>
      <use xlink:href="#DejaVuSans-6e" x="116.259766"/>
      <use xlink:href="#DejaVuSans-6f" x="179.638672"/>
      <use xlink:href="#DejaVuSans-6e" x="240.820312"/>
     </g>
    </g>
   </g>
  </g>
 </g>
 <defs>
  <clipPath id="p5fc759a0a5">
   <rect x="56.805938" y="22.318125" width="502.2" height="326.16"/>
  </clipPath>
 </defs>
</svg>
