<?xml version="1.0" encoding="utf-8" standalone="no"?>
<!DOCTYPE svg PUBLIC "-//W3C//DTD SVG 1.1//EN"
  "http://www.w3.org/Graphics/SVG/1.1/DTD/svg11.dtd">
<svg xmlns:xlink="http://www.w3.org/1999/xlink" width="756.634063pt" height="391.437812pt" viewBox="0 0 756.634063 391.437812" xmlns="http://www.w3.org/2000/svg" version="1.1">
 <metadata>
  <rdf:RDF xmlns:dc="http://purl.org/dc/elements/1.1/" xmlns:cc="http://creativecommons.org/ns#" xmlns:rdf="http://www.w3.org/1999/02/22-rdf-syntax-ns#">
   <cc:Work>
    <dc:type rdf:resource="http://purl.org/dc/dcmitype/StillImage"/>
    <dc:date>2023-06-27T20:14:50.826771</dc:date>
    <dc:format>image/svg+xml</dc:format>
    <dc:creator>
     <cc:Agent>
      <dc:title>Matplotlib v3.7.1, https://matplotlib.org/</dc:title>
     </cc:Agent>
    </dc:creator>
   </cc:Work>
  </rdf:RDF>
 </metadata>
 <defs>
  <style type="text/css">*{stroke-linejoin: round; stroke-linecap: butt}</style>
 </defs>
 <g id="figure_1">
  <g id="patch_1">
   <path d="M 0 391.437812 
L 756.634063 391.437812 
L 756.634063 0 
L 0 0 
L 0 391.437812 
z
" style="fill: none"/>
  </g>
  <g id="axes_1">
   <g id="patch_2">
    <path d="M 56.805938 348.478125 
L 559.005938 348.478125 
L 559.005938 22.318125 
L 56.805938 22.318125 
z
" style="fill: #eaeaf2"/>
   </g>
   <g id="matplotlib.axis_1">
    <g id="xtick_1">
     <g id="line2d_1">
      <path d="M 114.454474 348.478125 
L 114.454474 22.318125 
" clip-path="url(#p4c927fb57f)" style="fill: none; stroke: #ffffff; stroke-linecap: round"/>
     </g>
     <g id="text_1">
      <!-- 1820 -->
      <g style="fill: #262626" transform="translate(100.456974 366.336406) scale(0.11 -0.11)">
       <defs>
        <path id="DejaVuSans-31" d="M 794 531 
L 1825 531 
L 1825 4091 
L 703 3866 
L 703 4441 
L 1819 4666 
L 2450 4666 
L 2450 531 
L 3481 531 
L 3481 0 
L 794 0 
L 794 531 
z
" transform="scale(0.015625)"/>
        <path id="DejaVuSans-38" d="M 2034 2216 
Q 1584 2216 1326 1975 
Q 1069 1734 1069 1313 
Q 1069 891 1326 650 
Q 1584 409 2034 409 
Q 2484 409 2743 651 
Q 3003 894 3003 1313 
Q 3003 1734 2745 1975 
Q 2488 2216 2034 2216 
z
M 1403 2484 
Q 997 2584 770 2862 
Q 544 3141 544 3541 
Q 544 4100 942 4425 
Q 1341 4750 2034 4750 
Q 2731 4750 3128 4425 
Q 3525 4100 3525 3541 
Q 3525 3141 3298 2862 
Q 3072 2584 2669 2484 
Q 3125 2378 3379 2068 
Q 3634 1759 3634 1313 
Q 3634 634 3220 271 
Q 2806 -91 2034 -91 
Q 1263 -91 848 271 
Q 434 634 434 1313 
Q 434 1759 690 2068 
Q 947 2378 1403 2484 
z
M 1172 3481 
Q 1172 3119 1398 2916 
Q 1625 2713 2034 2713 
Q 2441 2713 2670 2916 
Q 2900 3119 2900 3481 
Q 2900 3844 2670 4047 
Q 2441 4250 2034 4250 
Q 1625 4250 1398 4047 
Q 1172 3844 1172 3481 
z
" transform="scale(0.015625)"/>
        <path id="DejaVuSans-32" d="M 1228 531 
L 3431 531 
L 3431 0 
L 469 0 
L 469 531 
Q 828 903 1448 1529 
Q 2069 2156 2228 2338 
Q 2531 2678 2651 2914 
Q 2772 3150 2772 3378 
Q 2772 3750 2511 3984 
Q 2250 4219 1831 4219 
Q 1534 4219 1204 4116 
Q 875 4013 500 3803 
L 500 4441 
Q 881 4594 1212 4672 
Q 1544 4750 1819 4750 
Q 2544 4750 2975 4387 
Q 3406 4025 3406 3419 
Q 3406 3131 3298 2873 
Q 3191 2616 2906 2266 
Q 2828 2175 2409 1742 
Q 1991 1309 1228 531 
z
" transform="scale(0.015625)"/>
        <path id="DejaVuSans-30" d="M 2034 4250 
Q 1547 4250 1301 3770 
Q 1056 3291 1056 2328 
Q 1056 1369 1301 889 
Q 1547 409 2034 409 
Q 2525 409 2770 889 
Q 3016 1369 3016 2328 
Q 3016 3291 2770 3770 
Q 2525 4250 2034 4250 
z
M 2034 4750 
Q 2819 4750 3233 4129 
Q 3647 3509 3647 2328 
Q 3647 1150 3233 529 
Q 2819 -91 2034 -91 
Q 1250 -91 836 529 
Q 422 1150 422 2328 
Q 422 3509 836 4129 
Q 1250 4750 2034 4750 
z
" transform="scale(0.015625)"/>
       </defs>
       <use xlink:href="#DejaVuSans-31"/>
       <use xlink:href="#DejaVuSans-38" x="63.623047"/>
       <use xlink:href="#DejaVuSans-32" x="127.246094"/>
       <use xlink:href="#DejaVuSans-30" x="190.869141"/>
      </g>
     </g>
    </g>
    <g id="xtick_2">
     <g id="line2d_2">
      <path d="M 191.835059 348.478125 
L 191.835059 22.318125 
" clip-path="url(#p4c927fb57f)" style="fill: none; stroke: #ffffff; stroke-linecap: round"/>
     </g>
     <g id="text_2">
      <!-- 1840 -->
      <g style="fill: #262626" transform="translate(177.837559 366.336406) scale(0.11 -0.11)">
       <defs>
        <path id="DejaVuSans-34" d="M 2419 4116 
L 825 1625 
L 2419 1625 
L 2419 4116 
z
M 2253 4666 
L 3047 4666 
L 3047 1625 
L 3713 1625 
L 3713 1100 
L 3047 1100 
L 3047 0 
L 2419 0 
L 2419 1100 
L 313 1100 
L 313 1709 
L 2253 4666 
z
" transform="scale(0.015625)"/>
       </defs>
       <use xlink:href="#DejaVuSans-31"/>
       <use xlink:href="#DejaVuSans-38" x="63.623047"/>
       <use xlink:href="#DejaVuSans-34" x="127.246094"/>
       <use xlink:href="#DejaVuSans-30" x="190.869141"/>
      </g>
     </g>
    </g>
    <g id="xtick_3">
     <g id="line2d_3">
      <path d="M 269.215645 348.478125 
L 269.215645 22.318125 
" clip-path="url(#p4c927fb57f)" style="fill: none; stroke: #ffffff; stroke-linecap: round"/>
     </g>
     <g id="text_3">
      <!-- 1860 -->
      <g style="fill: #262626" transform="translate(255.218145 366.336406) scale(0.11 -0.11)">
       <defs>
        <path id="DejaVuSans-36" d="M 2113 2584 
Q 1688 2584 1439 2293 
Q 1191 2003 1191 1497 
Q 1191 994 1439 701 
Q 1688 409 2113 409 
Q 2538 409 2786 701 
Q 3034 994 3034 1497 
Q 3034 2003 2786 2293 
Q 2538 2584 2113 2584 
z
M 3366 4563 
L 3366 3988 
Q 3128 4100 2886 4159 
Q 2644 4219 2406 4219 
Q 1781 4219 1451 3797 
Q 1122 3375 1075 2522 
Q 1259 2794 1537 2939 
Q 1816 3084 2150 3084 
Q 2853 3084 3261 2657 
Q 3669 2231 3669 1497 
Q 3669 778 3244 343 
Q 2819 -91 2113 -91 
Q 1303 -91 875 529 
Q 447 1150 447 2328 
Q 447 3434 972 4092 
Q 1497 4750 2381 4750 
Q 2619 4750 2861 4703 
Q 3103 4656 3366 4563 
z
" transform="scale(0.015625)"/>
       </defs>
       <use xlink:href="#DejaVuSans-31"/>
       <use xlink:href="#DejaVuSans-38" x="63.623047"/>
       <use xlink:href="#DejaVuSans-36" x="127.246094"/>
       <use xlink:href="#DejaVuSans-30" x="190.869141"/>
      </g>
     </g>
    </g>
    <g id="xtick_4">
     <g id="line2d_4">
      <path d="M 346.59623 348.478125 
L 346.59623 22.318125 
" clip-path="url(#p4c927fb57f)" style="fill: none; stroke: #ffffff; stroke-linecap: round"/>
     </g>
     <g id="text_4">
      <!-- 1880 -->
      <g style="fill: #262626" transform="translate(332.59873 366.336406) scale(0.11 -0.11)">
       <use xlink:href="#DejaVuSans-31"/>
       <use xlink:href="#DejaVuSans-38" x="63.623047"/>
       <use xlink:href="#DejaVuSans-38" x="127.246094"/>
       <use xlink:href="#DejaVuSans-30" x="190.869141"/>
      </g>
     </g>
    </g>
    <g id="xtick_5">
     <g id="line2d_5">
      <path d="M 423.976816 348.478125 
L 423.976816 22.318125 
" clip-path="url(#p4c927fb57f)" style="fill: none; stroke: #ffffff; stroke-linecap: round"/>
     </g>
     <g id="text_5">
      <!-- 1900 -->
      <g style="fill: #262626" transform="translate(409.979316 366.336406) scale(0.11 -0.11)">
       <defs>
        <path id="DejaVuSans-39" d="M 703 97 
L 703 672 
Q 941 559 1184 500 
Q 1428 441 1663 441 
Q 2288 441 2617 861 
Q 2947 1281 2994 2138 
Q 2813 1869 2534 1725 
Q 2256 1581 1919 1581 
Q 1219 1581 811 2004 
Q 403 2428 403 3163 
Q 403 3881 828 4315 
Q 1253 4750 1959 4750 
Q 2769 4750 3195 4129 
Q 3622 3509 3622 2328 
Q 3622 1225 3098 567 
Q 2575 -91 1691 -91 
Q 1453 -91 1209 -44 
Q 966 3 703 97 
z
M 1959 2075 
Q 2384 2075 2632 2365 
Q 2881 2656 2881 3163 
Q 2881 3666 2632 3958 
Q 2384 4250 1959 4250 
Q 1534 4250 1286 3958 
Q 1038 3666 1038 3163 
Q 1038 2656 1286 2365 
Q 1534 2075 1959 2075 
z
" transform="scale(0.015625)"/>
       </defs>
       <use xlink:href="#DejaVuSans-31"/>
       <use xlink:href="#DejaVuSans-39" x="63.623047"/>
       <use xlink:href="#DejaVuSans-30" x="127.246094"/>
       <use xlink:href="#DejaVuSans-30" x="190.869141"/>
      </g>
     </g>
    </g>
    <g id="xtick_6">
     <g id="line2d_6">
      <path d="M 501.357401 348.478125 
L 501.357401 22.318125 
" clip-path="url(#p4c927fb57f)" style="fill: none; stroke: #ffffff; stroke-linecap: round"/>
     </g>
     <g id="text_6">
      <!-- 1920 -->
      <g style="fill: #262626" transform="translate(487.359901 366.336406) scale(0.11 -0.11)">
       <use xlink:href="#DejaVuSans-31"/>
       <use xlink:href="#DejaVuSans-39" x="63.623047"/>
       <use xlink:href="#DejaVuSans-32" x="127.246094"/>
       <use xlink:href="#DejaVuSans-30" x="190.869141"/>
      </g>
     </g>
    </g>
    <g id="text_7">
     <!-- Dates -->
     <g style="fill: #262626" transform="translate(290.439375 381.742187) scale(0.12 -0.12)">
      <defs>
       <path id="DejaVuSans-44" d="M 1259 4147 
L 1259 519 
L 2022 519 
Q 2988 519 3436 956 
Q 3884 1394 3884 2338 
Q 3884 3275 3436 3711 
Q 2988 4147 2022 4147 
L 1259 4147 
z
M 628 4666 
L 1925 4666 
Q 3281 4666 3915 4102 
Q 4550 3538 4550 2338 
Q 4550 1131 3912 565 
Q 3275 0 1925 0 
L 628 0 
L 628 4666 
z
" transform="scale(0.015625)"/>
       <path id="DejaVuSans-61" d="M 2194 1759 
Q 1497 1759 1228 1600 
Q 959 1441 959 1056 
Q 959 750 1161 570 
Q 1363 391 1709 391 
Q 2188 391 2477 730 
Q 2766 1069 2766 1631 
L 2766 1759 
L 2194 1759 
z
M 3341 1997 
L 3341 0 
L 2766 0 
L 2766 531 
Q 2569 213 2275 61 
Q 1981 -91 1556 -91 
Q 1019 -91 701 211 
Q 384 513 384 1019 
Q 384 1609 779 1909 
Q 1175 2209 1959 2209 
L 2766 2209 
L 2766 2266 
Q 2766 2663 2505 2880 
Q 2244 3097 1772 3097 
Q 1472 3097 1187 3025 
Q 903 2953 641 2809 
L 641 3341 
Q 956 3463 1253 3523 
Q 1550 3584 1831 3584 
Q 2591 3584 2966 3190 
Q 3341 2797 3341 1997 
z
" transform="scale(0.015625)"/>
       <path id="DejaVuSans-74" d="M 1172 4494 
L 1172 3500 
L 2356 3500 
L 2356 3053 
L 1172 3053 
L 1172 1153 
Q 1172 725 1289 603 
Q 1406 481 1766 481 
L 2356 481 
L 2356 0 
L 1766 0 
Q 1100 0 847 248 
Q 594 497 594 1153 
L 594 3053 
L 172 3053 
L 172 3500 
L 594 3500 
L 594 4494 
L 1172 4494 
z
" transform="scale(0.015625)"/>
       <path id="DejaVuSans-65" d="M 3597 1894 
L 3597 1613 
L 953 1613 
Q 991 1019 1311 708 
Q 1631 397 2203 397 
Q 2534 397 2845 478 
Q 3156 559 3463 722 
L 3463 178 
Q 3153 47 2828 -22 
Q 2503 -91 2169 -91 
Q 1331 -91 842 396 
Q 353 884 353 1716 
Q 353 2575 817 3079 
Q 1281 3584 2069 3584 
Q 2775 3584 3186 3129 
Q 3597 2675 3597 1894 
z
M 3022 2063 
Q 3016 2534 2758 2815 
Q 2500 3097 2075 3097 
Q 1594 3097 1305 2825 
Q 1016 2553 972 2059 
L 3022 2063 
z
" transform="scale(0.015625)"/>
       <path id="DejaVuSans-73" d="M 2834 3397 
L 2834 2853 
Q 2591 2978 2328 3040 
Q 2066 3103 1784 3103 
Q 1356 3103 1142 2972 
Q 928 2841 928 2578 
Q 928 2378 1081 2264 
Q 1234 2150 1697 2047 
L 1894 2003 
Q 2506 1872 2764 1633 
Q 3022 1394 3022 966 
Q 3022 478 2636 193 
Q 2250 -91 1575 -91 
Q 1294 -91 989 -36 
Q 684 19 347 128 
L 347 722 
Q 666 556 975 473 
Q 1284 391 1588 391 
Q 1994 391 2212 530 
Q 2431 669 2431 922 
Q 2431 1156 2273 1281 
Q 2116 1406 1581 1522 
L 1381 1569 
Q 847 1681 609 1914 
Q 372 2147 372 2553 
Q 372 3047 722 3315 
Q 1072 3584 1716 3584 
Q 2034 3584 2315 3537 
Q 2597 3491 2834 3397 
z
" transform="scale(0.015625)"/>
      </defs>
      <use xlink:href="#DejaVuSans-44"/>
      <use xlink:href="#DejaVuSans-61" x="77.001953"/>
      <use xlink:href="#DejaVuSans-74" x="138.28125"/>
      <use xlink:href="#DejaVuSans-65" x="177.490234"/>
      <use xlink:href="#DejaVuSans-73" x="239.013672"/>
     </g>
    </g>
   </g>
   <g id="matplotlib.axis_2">
    <g id="ytick_1">
     <g id="line2d_7">
      <path d="M 56.805938 334.556698 
L 559.005938 334.556698 
" clip-path="url(#p4c927fb57f)" style="fill: none; stroke: #ffffff; stroke-linecap: round"/>
     </g>
     <g id="text_8">
      <!-- 0.07 -->
      <g style="fill: #262626" transform="translate(22.81375 338.735839) scale(0.11 -0.11)">
       <defs>
        <path id="DejaVuSans-2e" d="M 684 794 
L 1344 794 
L 1344 0 
L 684 0 
L 684 794 
z
" transform="scale(0.015625)"/>
        <path id="DejaVuSans-37" d="M 525 4666 
L 3525 4666 
L 3525 4397 
L 1831 0 
L 1172 0 
L 2766 4134 
L 525 4134 
L 525 4666 
z
" transform="scale(0.015625)"/>
       </defs>
       <use xlink:href="#DejaVuSans-30"/>
       <use xlink:href="#DejaVuSans-2e" x="63.623047"/>
       <use xlink:href="#DejaVuSans-30" x="95.410156"/>
       <use xlink:href="#DejaVuSans-37" x="159.033203"/>
      </g>
     </g>
    </g>
    <g id="ytick_2">
     <g id="line2d_8">
      <path d="M 56.805938 279.056292 
L 559.005938 279.056292 
" clip-path="url(#p4c927fb57f)" style="fill: none; stroke: #ffffff; stroke-linecap: round"/>
     </g>
     <g id="text_9">
      <!-- 0.08 -->
      <g style="fill: #262626" transform="translate(22.81375 283.235432) scale(0.11 -0.11)">
       <use xlink:href="#DejaVuSans-30"/>
       <use xlink:href="#DejaVuSans-2e" x="63.623047"/>
       <use xlink:href="#DejaVuSans-30" x="95.410156"/>
       <use xlink:href="#DejaVuSans-38" x="159.033203"/>
      </g>
     </g>
    </g>
    <g id="ytick_3">
     <g id="line2d_9">
      <path d="M 56.805938 223.555885 
L 559.005938 223.555885 
" clip-path="url(#p4c927fb57f)" style="fill: none; stroke: #ffffff; stroke-linecap: round"/>
     </g>
     <g id="text_10">
      <!-- 0.09 -->
      <g style="fill: #262626" transform="translate(22.81375 227.735026) scale(0.11 -0.11)">
       <use xlink:href="#DejaVuSans-30"/>
       <use xlink:href="#DejaVuSans-2e" x="63.623047"/>
       <use xlink:href="#DejaVuSans-30" x="95.410156"/>
       <use xlink:href="#DejaVuSans-39" x="159.033203"/>
      </g>
     </g>
    </g>
    <g id="ytick_4">
     <g id="line2d_10">
      <path d="M 56.805938 168.055479 
L 559.005938 168.055479 
" clip-path="url(#p4c927fb57f)" style="fill: none; stroke: #ffffff; stroke-linecap: round"/>
     </g>
     <g id="text_11">
      <!-- 0.10 -->
      <g style="fill: #262626" transform="translate(22.81375 172.234619) scale(0.11 -0.11)">
       <use xlink:href="#DejaVuSans-30"/>
       <use xlink:href="#DejaVuSans-2e" x="63.623047"/>
       <use xlink:href="#DejaVuSans-31" x="95.410156"/>
       <use xlink:href="#DejaVuSans-30" x="159.033203"/>
      </g>
     </g>
    </g>
    <g id="ytick_5">
     <g id="line2d_11">
      <path d="M 56.805938 112.555072 
L 559.005938 112.555072 
" clip-path="url(#p4c927fb57f)" style="fill: none; stroke: #ffffff; stroke-linecap: round"/>
     </g>
     <g id="text_12">
      <!-- 0.11 -->
      <g style="fill: #262626" transform="translate(22.81375 116.734213) scale(0.11 -0.11)">
       <use xlink:href="#DejaVuSans-30"/>
       <use xlink:href="#DejaVuSans-2e" x="63.623047"/>
       <use xlink:href="#DejaVuSans-31" x="95.410156"/>
       <use xlink:href="#DejaVuSans-31" x="159.033203"/>
      </g>
     </g>
    </g>
    <g id="ytick_6">
     <g id="line2d_12">
      <path d="M 56.805938 57.054666 
L 559.005938 57.054666 
" clip-path="url(#p4c927fb57f)" style="fill: none; stroke: #ffffff; stroke-linecap: round"/>
     </g>
     <g id="text_13">
      <!-- 0.12 -->
      <g style="fill: #262626" transform="translate(22.81375 61.233806) scale(0.11 -0.11)">
       <use xlink:href="#DejaVuSans-30"/>
       <use xlink:href="#DejaVuSans-2e" x="63.623047"/>
       <use xlink:href="#DejaVuSans-31" x="95.410156"/>
       <use xlink:href="#DejaVuSans-32" x="159.033203"/>
      </g>
     </g>
    </g>
    <g id="text_14">
     <!-- Mean entropy -->
     <g style="fill: #262626" transform="translate(16.318125 226.862812) rotate(-90) scale(0.12 -0.12)">
      <defs>
       <path id="DejaVuSans-4d" d="M 628 4666 
L 1569 4666 
L 2759 1491 
L 3956 4666 
L 4897 4666 
L 4897 0 
L 4281 0 
L 4281 4097 
L 3078 897 
L 2444 897 
L 1241 4097 
L 1241 0 
L 628 0 
L 628 4666 
z
" transform="scale(0.015625)"/>
       <path id="DejaVuSans-6e" d="M 3513 2113 
L 3513 0 
L 2938 0 
L 2938 2094 
Q 2938 2591 2744 2837 
Q 2550 3084 2163 3084 
Q 1697 3084 1428 2787 
Q 1159 2491 1159 1978 
L 1159 0 
L 581 0 
L 581 3500 
L 1159 3500 
L 1159 2956 
Q 1366 3272 1645 3428 
Q 1925 3584 2291 3584 
Q 2894 3584 3203 3211 
Q 3513 2838 3513 2113 
z
" transform="scale(0.015625)"/>
       <path id="DejaVuSans-20" transform="scale(0.015625)"/>
       <path id="DejaVuSans-72" d="M 2631 2963 
Q 2534 3019 2420 3045 
Q 2306 3072 2169 3072 
Q 1681 3072 1420 2755 
Q 1159 2438 1159 1844 
L 1159 0 
L 581 0 
L 581 3500 
L 1159 3500 
L 1159 2956 
Q 1341 3275 1631 3429 
Q 1922 3584 2338 3584 
Q 2397 3584 2469 3576 
Q 2541 3569 2628 3553 
L 2631 2963 
z
" transform="scale(0.015625)"/>
       <path id="DejaVuSans-6f" d="M 1959 3097 
Q 1497 3097 1228 2736 
Q 959 2375 959 1747 
Q 959 1119 1226 758 
Q 1494 397 1959 397 
Q 2419 397 2687 759 
Q 2956 1122 2956 1747 
Q 2956 2369 2687 2733 
Q 2419 3097 1959 3097 
z
M 1959 3584 
Q 2709 3584 3137 3096 
Q 3566 2609 3566 1747 
Q 3566 888 3137 398 
Q 2709 -91 1959 -91 
Q 1206 -91 779 398 
Q 353 888 353 1747 
Q 353 2609 779 3096 
Q 1206 3584 1959 3584 
z
" transform="scale(0.015625)"/>
       <path id="DejaVuSans-70" d="M 1159 525 
L 1159 -1331 
L 581 -1331 
L 581 3500 
L 1159 3500 
L 1159 2969 
Q 1341 3281 1617 3432 
Q 1894 3584 2278 3584 
Q 2916 3584 3314 3078 
Q 3713 2572 3713 1747 
Q 3713 922 3314 415 
Q 2916 -91 2278 -91 
Q 1894 -91 1617 61 
Q 1341 213 1159 525 
z
M 3116 1747 
Q 3116 2381 2855 2742 
Q 2594 3103 2138 3103 
Q 1681 3103 1420 2742 
Q 1159 2381 1159 1747 
Q 1159 1113 1420 752 
Q 1681 391 2138 391 
Q 2594 391 2855 752 
Q 3116 1113 3116 1747 
z
" transform="scale(0.015625)"/>
       <path id="DejaVuSans-79" d="M 2059 -325 
Q 1816 -950 1584 -1140 
Q 1353 -1331 966 -1331 
L 506 -1331 
L 506 -850 
L 844 -850 
Q 1081 -850 1212 -737 
Q 1344 -625 1503 -206 
L 1606 56 
L 191 3500 
L 800 3500 
L 1894 763 
L 2988 3500 
L 3597 3500 
L 2059 -325 
z
" transform="scale(0.015625)"/>
      </defs>
      <use xlink:href="#DejaVuSans-4d"/>
      <use xlink:href="#DejaVuSans-65" x="86.279297"/>
      <use xlink:href="#DejaVuSans-61" x="147.802734"/>
      <use xlink:href="#DejaVuSans-6e" x="209.082031"/>
      <use xlink:href="#DejaVuSans-20" x="272.460938"/>
      <use xlink:href="#DejaVuSans-65" x="304.248047"/>
      <use xlink:href="#DejaVuSans-6e" x="365.771484"/>
      <use xlink:href="#DejaVuSans-74" x="429.150391"/>
      <use xlink:href="#DejaVuSans-72" x="468.359375"/>
      <use xlink:href="#DejaVuSans-6f" x="507.222656"/>
      <use xlink:href="#DejaVuSans-70" x="568.404297"/>
      <use xlink:href="#DejaVuSans-79" x="631.880859"/>
     </g>
    </g>
   </g>
   <g id="PolyCollection_1">
    <defs>
     <path id="m241d532bcb" d="M 83.50224 -213.589712 
L 83.50224 -110.552867 
L 88.074729 -110.014186 
L 92.647218 -108.443876 
L 97.219707 -108.12207 
L 101.792196 -106.695596 
L 106.364685 -105.6308 
L 110.937174 -104.414841 
L 115.509664 -102.520864 
L 120.082153 -101.277574 
L 124.654642 -99.710005 
L 129.227131 -98.225625 
L 133.79962 -96.201859 
L 138.372109 -94.659882 
L 142.944598 -93.001667 
L 147.517088 -90.977737 
L 152.089577 -89.692175 
L 156.662066 -88.050703 
L 161.234555 -85.968036 
L 165.807044 -84.506163 
L 170.379533 -83.360095 
L 174.952022 -82.628541 
L 179.524512 -82.175848 
L 184.097001 -81.666268 
L 188.66949 -81.597939 
L 193.241979 -81.620965 
L 197.814468 -82.123868 
L 202.386957 -82.934518 
L 206.959446 -84.146664 
L 211.531936 -84.799287 
L 216.104425 -85.896715 
L 220.676914 -86.862524 
L 225.249403 -87.70932 
L 229.821892 -89.370454 
L 234.394381 -90.860409 
L 238.96687 -92.250565 
L 243.53936 -93.814108 
L 248.111849 -95.210302 
L 252.684338 -96.872559 
L 257.256827 -98.630129 
L 261.829316 -100.82999 
L 266.401805 -102.82646 
L 270.974294 -105.245246 
L 275.546784 -107.045625 
L 280.119273 -108.954568 
L 284.691762 -111.028793 
L 289.264251 -113.253894 
L 293.83674 -115.074624 
L 298.409229 -117.159435 
L 302.981718 -119.004143 
L 307.554208 -121.329234 
L 312.126697 -122.866727 
L 316.699186 -125.269367 
L 321.271675 -126.803642 
L 325.844164 -128.770496 
L 330.416653 -130.674829 
L 334.989142 -132.704655 
L 339.561632 -134.572307 
L 344.134121 -136.116583 
L 348.70661 -137.008509 
L 353.279099 -138.279157 
L 357.851588 -140.062529 
L 362.424077 -141.108033 
L 366.996566 -143.002736 
L 371.569056 -143.748613 
L 376.141545 -145.476489 
L 380.714034 -146.599707 
L 385.286523 -148.750483 
L 389.859012 -148.905062 
L 394.431501 -148.985498 
L 399.00399 -149.75487 
L 403.57648 -150.657607 
L 408.148969 -151.258305 
L 412.721458 -152.573773 
L 417.293947 -152.781215 
L 421.866436 -153.857025 
L 426.438925 -154.462175 
L 431.011414 -155.769996 
L 435.583904 -156.121541 
L 440.156393 -156.877419 
L 444.728882 -155.778709 
L 449.301371 -154.768066 
L 453.87386 -153.817083 
L 458.446349 -152.889592 
L 463.018838 -151.355183 
L 467.591328 -150.498067 
L 472.163817 -147.535932 
L 476.736306 -143.623095 
L 481.308795 -140.344116 
L 485.881284 -136.863362 
L 490.453773 -133.440555 
L 495.026262 -129.563927 
L 499.598752 -124.313401 
L 504.171241 -117.995055 
L 508.74373 -111.407965 
L 513.316219 -103.704032 
L 517.888708 -96.077092 
L 522.461197 -87.561048 
L 527.033686 -77.912343 
L 531.606176 -68.59513 
L 536.178665 -57.785142 
L 536.178665 -252.385165 
L 536.178665 -252.385165 
L 531.606176 -251.974198 
L 527.033686 -249.836091 
L 522.461197 -247.614899 
L 517.888708 -244.842 
L 513.316219 -240.803803 
L 508.74373 -240.803347 
L 504.171241 -237.794836 
L 499.598752 -234.742244 
L 495.026262 -233.732559 
L 490.453773 -231.503406 
L 485.881284 -229.735084 
L 481.308795 -229.274315 
L 476.736306 -228.588749 
L 472.163817 -226.333817 
L 467.591328 -226.972393 
L 463.018838 -227.861071 
L 458.446349 -228.25691 
L 453.87386 -228.097111 
L 449.301371 -228.660024 
L 444.728882 -228.624095 
L 440.156393 -228.734373 
L 435.583904 -229.696125 
L 431.011414 -229.214898 
L 426.438925 -229.543444 
L 421.866436 -228.859595 
L 417.293947 -228.338643 
L 412.721458 -228.110239 
L 408.148969 -228.125671 
L 403.57648 -227.671177 
L 399.00399 -226.441134 
L 394.431501 -225.021777 
L 389.859012 -223.612867 
L 385.286523 -222.509963 
L 380.714034 -221.548616 
L 376.141545 -219.611 
L 371.569056 -217.472369 
L 366.996566 -214.678212 
L 362.424077 -213.051039 
L 357.851588 -210.255335 
L 353.279099 -207.630808 
L 348.70661 -204.143694 
L 344.134121 -200.906928 
L 339.561632 -197.668718 
L 334.989142 -194.99466 
L 330.416653 -191.814188 
L 325.844164 -188.852197 
L 321.271675 -187.037779 
L 316.699186 -184.919894 
L 312.126697 -181.699527 
L 307.554208 -179.447838 
L 302.981718 -176.383462 
L 298.409229 -173.739209 
L 293.83674 -171.447012 
L 289.264251 -169.099406 
L 284.691762 -165.68495 
L 280.119273 -163.637723 
L 275.546784 -160.7233 
L 270.974294 -158.643146 
L 266.401805 -156.599231 
L 261.829316 -155.089536 
L 257.256827 -153.615695 
L 252.684338 -152.133256 
L 248.111849 -151.19701 
L 243.53936 -149.065781 
L 238.96687 -147.483305 
L 234.394381 -145.953704 
L 229.821892 -144.375478 
L 225.249403 -143.441116 
L 220.676914 -141.977098 
L 216.104425 -141.103552 
L 211.531936 -140.537693 
L 206.959446 -139.935323 
L 202.386957 -139.381303 
L 197.814468 -138.290032 
L 193.241979 -137.920153 
L 188.66949 -137.623494 
L 184.097001 -137.331531 
L 179.524512 -136.984876 
L 174.952022 -136.551367 
L 170.379533 -136.716991 
L 165.807044 -136.867283 
L 161.234555 -137.044217 
L 156.662066 -137.527137 
L 152.089577 -138.734118 
L 147.517088 -139.503675 
L 142.944598 -140.550193 
L 138.372109 -143.166948 
L 133.79962 -145.860513 
L 129.227131 -148.695914 
L 124.654642 -151.959172 
L 120.082153 -156.615181 
L 115.509664 -161.222598 
L 110.937174 -167.410546 
L 106.364685 -174.259674 
L 101.792196 -181.432174 
L 97.219707 -188.30491 
L 92.647218 -196.492454 
L 88.074729 -205.480384 
L 83.50224 -213.589712 
z
" style="stroke: #ffffff; stroke-opacity: 0.15"/>
    </defs>
    <g clip-path="url(#p4c927fb57f)">
     <use xlink:href="#m241d532bcb" x="0" y="391.437812" style="fill: #0000ff; fill-opacity: 0.15; stroke: #ffffff; stroke-opacity: 0.15"/>
    </g>
   </g>
   <g id="PolyCollection_2">
    <defs>
     <path id="m89732d5989" d="M 79.63321 -354.294233 
L 79.63321 -155.251295 
L 84.24478 -159.189243 
L 88.856351 -162.285567 
L 93.467921 -165.458096 
L 98.079491 -167.211567 
L 102.691061 -168.822973 
L 107.302632 -167.928284 
L 111.914202 -167.151005 
L 116.525772 -166.350872 
L 121.137342 -166.341813 
L 125.748913 -164.19978 
L 130.360483 -163.58866 
L 134.972053 -162.163589 
L 139.583623 -158.785452 
L 144.195194 -155.105143 
L 148.806764 -151.440012 
L 153.418334 -148.850803 
L 158.029904 -144.516887 
L 162.641475 -141.285954 
L 167.253045 -138.972828 
L 171.864615 -135.318553 
L 176.476185 -131.992149 
L 181.087756 -129.318695 
L 185.699326 -126.066332 
L 190.310896 -123.029144 
L 194.922466 -121.282455 
L 199.534037 -119.129119 
L 204.145607 -117.446218 
L 208.757177 -115.204987 
L 213.368747 -113.47506 
L 217.980318 -111.786561 
L 222.591888 -111.108535 
L 227.203458 -110.482335 
L 231.815028 -109.714486 
L 236.426599 -108.67139 
L 241.038169 -108.42132 
L 245.649739 -108.475585 
L 250.261309 -108.714941 
L 254.87288 -108.717972 
L 259.48445 -108.807476 
L 264.09602 -109.291049 
L 268.70759 -110.106797 
L 273.319161 -110.390955 
L 277.930731 -111.358184 
L 282.542301 -111.415285 
L 287.153871 -111.914337 
L 291.765442 -113.123355 
L 296.377012 -114.79295 
L 300.988582 -116.068326 
L 305.600152 -117.688402 
L 310.211723 -118.765198 
L 314.823293 -120.229819 
L 319.434863 -121.276706 
L 324.046433 -122.328698 
L 328.658004 -123.526828 
L 333.269574 -124.652439 
L 337.881144 -126.242059 
L 342.492714 -126.872095 
L 347.104285 -126.754112 
L 351.715855 -127.871111 
L 356.327425 -128.38948 
L 360.938995 -128.780038 
L 365.550566 -129.596628 
L 370.162136 -130.980638 
L 374.773706 -131.882616 
L 379.385276 -131.956358 
L 383.996847 -133.261709 
L 388.608417 -133.79371 
L 393.219987 -133.455243 
L 397.831557 -133.52263 
L 402.443128 -133.48282 
L 407.054698 -134.06804 
L 411.666268 -134.812081 
L 416.277838 -136.671556 
L 420.889409 -136.872602 
L 425.500979 -137.615224 
L 430.112549 -137.402649 
L 434.724119 -138.224137 
L 439.33569 -139.777373 
L 443.94726 -141.119194 
L 448.55883 -143.187827 
L 453.1704 -144.345653 
L 457.781971 -145.65847 
L 462.393541 -147.214864 
L 467.005111 -148.002784 
L 471.616681 -149.630179 
L 476.228252 -151.228278 
L 480.839822 -152.032024 
L 485.451392 -151.946648 
L 490.062962 -152.226848 
L 494.674533 -152.50767 
L 499.286103 -152.725218 
L 503.897673 -151.617388 
L 508.509243 -149.416687 
L 513.120814 -146.103656 
L 517.732384 -144.454249 
L 522.343954 -139.134211 
L 526.955524 -131.043195 
L 531.567095 -124.53637 
L 536.178665 -118.457563 
L 536.178665 -253.774348 
L 536.178665 -253.774348 
L 531.567095 -248.645935 
L 526.955524 -241.071941 
L 522.343954 -236.473182 
L 517.732384 -232.030064 
L 513.120814 -228.892898 
L 508.509243 -225.667254 
L 503.897673 -222.405172 
L 499.286103 -219.595017 
L 494.674533 -217.925088 
L 490.062962 -216.413218 
L 485.451392 -216.800321 
L 480.839822 -214.884335 
L 476.228252 -213.888579 
L 471.616681 -213.97142 
L 467.005111 -214.34268 
L 462.393541 -215.102295 
L 457.781971 -215.577706 
L 453.1704 -216.373387 
L 448.55883 -217.005022 
L 443.94726 -216.7021 
L 439.33569 -215.908979 
L 434.724119 -217.03416 
L 430.112549 -218.029441 
L 425.500979 -218.771798 
L 420.889409 -219.698283 
L 416.277838 -220.144311 
L 411.666268 -219.483974 
L 407.054698 -218.168364 
L 402.443128 -218.425513 
L 397.831557 -218.239466 
L 393.219987 -218.051786 
L 388.608417 -217.821862 
L 383.996847 -218.701976 
L 379.385276 -218.756577 
L 374.773706 -217.628975 
L 370.162136 -218.406097 
L 365.550566 -219.461888 
L 360.938995 -220.76192 
L 356.327425 -218.729347 
L 351.715855 -218.028945 
L 347.104285 -216.311147 
L 342.492714 -215.540674 
L 337.881144 -215.280505 
L 333.269574 -216.898372 
L 328.658004 -217.678627 
L 324.046433 -218.641222 
L 319.434863 -220.1657 
L 314.823293 -222.884852 
L 310.211723 -223.933069 
L 305.600152 -225.477384 
L 300.988582 -227.148337 
L 296.377012 -229.153008 
L 291.765442 -231.325596 
L 287.153871 -233.205535 
L 282.542301 -234.745342 
L 277.930731 -236.462005 
L 273.319161 -237.19914 
L 268.70759 -238.892072 
L 264.09602 -240.930034 
L 259.48445 -242.446191 
L 254.87288 -243.422745 
L 250.261309 -244.846434 
L 245.649739 -245.969507 
L 241.038169 -247.59734 
L 236.426599 -249.139187 
L 231.815028 -251.370449 
L 227.203458 -252.80508 
L 222.591888 -253.432446 
L 217.980318 -255.25536 
L 213.368747 -257.11752 
L 208.757177 -258.246378 
L 204.145607 -258.969381 
L 199.534037 -259.56066 
L 194.922466 -260.00609 
L 190.310896 -260.423591 
L 185.699326 -260.483951 
L 181.087756 -260.86099 
L 176.476185 -261.437287 
L 171.864615 -262.523875 
L 167.253045 -261.888723 
L 162.641475 -261.568891 
L 158.029904 -261.646791 
L 153.418334 -261.213809 
L 148.806764 -260.516389 
L 144.195194 -261.397978 
L 139.583623 -259.287483 
L 134.972053 -261.887536 
L 130.360483 -263.45448 
L 125.748913 -266.451912 
L 121.137342 -270.257714 
L 116.525772 -273.691592 
L 111.914202 -280.964646 
L 107.302632 -288.401524 
L 102.691061 -296.242256 
L 98.079491 -308.920257 
L 93.467921 -320.933848 
L 88.856351 -328.621919 
L 84.24478 -340.116463 
L 79.63321 -354.294233 
z
" style="stroke: #ffffff; stroke-opacity: 0.15"/>
    </defs>
    <g clip-path="url(#p4c927fb57f)">
     <use xlink:href="#m89732d5989" x="0" y="391.437812" style="fill: #ff0000; fill-opacity: 0.15; stroke: #ffffff; stroke-opacity: 0.15"/>
    </g>
   </g>
   <g id="line2d_13">
    <path d="M 83.50224 230.573862 
L 88.074729 235.746962 
L 92.647218 240.616025 
L 97.219707 245.187358 
L 101.792196 249.46727 
L 106.364685 253.462069 
L 110.937174 257.178062 
L 115.509664 260.621558 
L 120.082153 263.798863 
L 124.654642 266.716287 
L 129.227131 269.380137 
L 133.79962 271.796721 
L 138.372109 273.972347 
L 142.944598 275.913323 
L 147.517088 277.625956 
L 152.089577 279.116556 
L 156.662066 280.391428 
L 161.234555 281.456883 
L 165.807044 282.319226 
L 170.379533 282.984767 
L 174.952022 283.459814 
L 179.524512 283.750673 
L 184.097001 283.863653 
L 188.66949 283.805063 
L 193.241979 283.581209 
L 197.814468 283.1984 
L 202.386957 282.662944 
L 206.959446 281.981148 
L 211.531936 281.159321 
L 216.104425 280.20377 
L 220.676914 279.120804 
L 225.249403 277.91673 
L 229.821892 276.597856 
L 234.394381 275.17049 
L 238.96687 273.640941 
L 243.53936 272.015515 
L 248.111849 270.300521 
L 252.684338 268.502266 
L 257.256827 266.62706 
L 261.829316 264.681209 
L 266.401805 262.671021 
L 270.974294 260.602805 
L 275.546784 258.482868 
L 280.119273 256.317518 
L 284.691762 254.113064 
L 289.264251 251.875812 
L 293.83674 249.612072 
L 298.409229 247.32815 
L 302.981718 245.030355 
L 307.554208 242.724995 
L 312.126697 240.418377 
L 316.699186 238.11681 
L 321.271675 235.826601 
L 325.844164 233.554059 
L 330.416653 231.305491 
L 334.989142 229.087205 
L 339.561632 226.905509 
L 344.134121 224.766711 
L 348.70661 222.677119 
L 353.279099 220.643041 
L 357.851588 218.670785 
L 362.424077 216.766658 
L 366.996566 214.936969 
L 371.569056 213.188025 
L 376.141545 211.526134 
L 380.714034 209.957605 
L 385.286523 208.488745 
L 389.859012 207.125863 
L 394.431501 205.875265 
L 399.00399 204.74326 
L 403.57648 203.736156 
L 408.148969 202.860261 
L 412.721458 202.121882 
L 417.293947 201.527328 
L 421.866436 201.082907 
L 426.438925 200.794926 
L 431.011414 200.669693 
L 435.583904 200.713517 
L 440.156393 200.932704 
L 444.728882 201.333564 
L 449.301371 201.922404 
L 453.87386 202.705532 
L 458.446349 203.689255 
L 463.018838 204.879882 
L 467.591328 206.283721 
L 472.163817 207.907079 
L 476.736306 209.756265 
L 481.308795 211.837586 
L 485.881284 214.157351 
L 490.453773 216.721866 
L 495.026262 219.537441 
L 499.598752 222.610383 
L 504.171241 225.946999 
L 508.74373 229.553599 
L 513.316219 233.436489 
L 517.888708 237.601978 
L 522.461197 242.056373 
L 527.033686 246.805983 
L 531.606176 251.857116 
L 536.178665 257.216078 
" clip-path="url(#p4c927fb57f)" style="fill: none; stroke: #0000ff; stroke-width: 2.25; stroke-linecap: round"/>
   </g>
   <g id="line2d_14">
    <path d="M 79.63321 152.577123 
L 84.24478 155.304554 
L 88.856351 157.970907 
L 93.467921 160.576614 
L 98.079491 163.122107 
L 102.691061 165.607817 
L 107.302632 168.034177 
L 111.914202 170.401617 
L 116.525772 172.710571 
L 121.137342 174.961469 
L 125.748913 177.154744 
L 130.360483 179.290827 
L 134.972053 181.370149 
L 139.583623 183.393144 
L 144.195194 185.360243 
L 148.806764 187.271877 
L 153.418334 189.128478 
L 158.029904 190.930478 
L 162.641475 192.678309 
L 167.253045 194.372403 
L 171.864615 196.013191 
L 176.476185 197.601105 
L 181.087756 199.136577 
L 185.699326 200.620039 
L 190.310896 202.051923 
L 194.922466 203.43266 
L 199.534037 204.762682 
L 204.145607 206.042422 
L 208.757177 207.27231 
L 213.368747 208.452778 
L 217.980318 209.584259 
L 222.591888 210.667184 
L 227.203458 211.701985 
L 231.815028 212.689094 
L 236.426599 213.628942 
L 241.038169 214.521962 
L 245.649739 215.368585 
L 250.261309 216.169243 
L 254.87288 216.924367 
L 259.48445 217.63439 
L 264.09602 218.299744 
L 268.70759 218.920859 
L 273.319161 219.498168 
L 277.930731 220.032103 
L 282.542301 220.523096 
L 287.153871 220.971578 
L 291.765442 221.377981 
L 296.377012 221.742736 
L 300.988582 222.066277 
L 305.600152 222.349034 
L 310.211723 222.591439 
L 314.823293 222.793924 
L 319.434863 222.956921 
L 324.046433 223.080862 
L 328.658004 223.166178 
L 333.269574 223.213301 
L 337.881144 223.222664 
L 342.492714 223.194697 
L 347.104285 223.129833 
L 351.715855 223.028503 
L 356.327425 222.891139 
L 360.938995 222.718174 
L 365.550566 222.510038 
L 370.162136 222.267164 
L 374.773706 221.989983 
L 379.385276 221.678928 
L 383.996847 221.334429 
L 388.608417 220.956919 
L 393.219987 220.54683 
L 397.831557 220.104593 
L 402.443128 219.63064 
L 407.054698 219.125403 
L 411.666268 218.589314 
L 416.277838 218.022804 
L 420.889409 217.426306 
L 425.500979 216.800251 
L 430.112549 216.145071 
L 434.724119 215.461197 
L 439.33569 214.749062 
L 443.94726 214.009098 
L 448.55883 213.241735 
L 453.1704 212.447406 
L 457.781971 211.626544 
L 462.393541 210.779578 
L 467.005111 209.906942 
L 471.616681 209.009067 
L 476.228252 208.086384 
L 480.839822 207.139327 
L 485.451392 206.168325 
L 490.062962 205.173813 
L 494.674533 204.15622 
L 499.286103 203.115979 
L 503.897673 202.053521 
L 508.509243 200.969279 
L 513.120814 199.863684 
L 517.732384 198.737169 
L 522.343954 197.590164 
L 526.955524 196.423101 
L 531.567095 195.236413 
L 536.178665 194.030532 
" clip-path="url(#p4c927fb57f)" style="fill: none; stroke: #ff0000; stroke-width: 2.25; stroke-linecap: round"/>
   </g>
   <g id="patch_3">
    <path d="M 56.805938 348.478125 
L 56.805938 22.318125 
" style="fill: none; stroke: #ffffff; stroke-width: 1.25; stroke-linejoin: miter; stroke-linecap: square"/>
   </g>
   <g id="patch_4">
    <path d="M 559.005938 348.478125 
L 559.005938 22.318125 
" style="fill: none; stroke: #ffffff; stroke-width: 1.25; stroke-linejoin: miter; stroke-linecap: square"/>
   </g>
   <g id="patch_5">
    <path d="M 56.805938 348.478125 
L 559.005938 348.478125 
" style="fill: none; stroke: #ffffff; stroke-width: 1.25; stroke-linejoin: miter; stroke-linecap: square"/>
   </g>
   <g id="patch_6">
    <path d="M 56.805938 22.318125 
L 559.005938 22.318125 
" style="fill: none; stroke: #ffffff; stroke-width: 1.25; stroke-linejoin: miter; stroke-linecap: square"/>
   </g>
   <g id="text_15">
    <!-- Mean novelty per birth year in our novels, broken out by canonicity tag -->
    <g style="fill: #262626" transform="translate(93.735 16.318125) scale(0.12 -0.12)">
     <defs>
      <path id="DejaVuSans-76" d="M 191 3500 
L 800 3500 
L 1894 563 
L 2988 3500 
L 3597 3500 
L 2284 0 
L 1503 0 
L 191 3500 
z
" transform="scale(0.015625)"/>
      <path id="DejaVuSans-6c" d="M 603 4863 
L 1178 4863 
L 1178 0 
L 603 0 
L 603 4863 
z
" transform="scale(0.015625)"/>
      <path id="DejaVuSans-62" d="M 3116 1747 
Q 3116 2381 2855 2742 
Q 2594 3103 2138 3103 
Q 1681 3103 1420 2742 
Q 1159 2381 1159 1747 
Q 1159 1113 1420 752 
Q 1681 391 2138 391 
Q 2594 391 2855 752 
Q 3116 1113 3116 1747 
z
M 1159 2969 
Q 1341 3281 1617 3432 
Q 1894 3584 2278 3584 
Q 2916 3584 3314 3078 
Q 3713 2572 3713 1747 
Q 3713 922 3314 415 
Q 2916 -91 2278 -91 
Q 1894 -91 1617 61 
Q 1341 213 1159 525 
L 1159 0 
L 581 0 
L 581 4863 
L 1159 4863 
L 1159 2969 
z
" transform="scale(0.015625)"/>
      <path id="DejaVuSans-69" d="M 603 3500 
L 1178 3500 
L 1178 0 
L 603 0 
L 603 3500 
z
M 603 4863 
L 1178 4863 
L 1178 4134 
L 603 4134 
L 603 4863 
z
" transform="scale(0.015625)"/>
      <path id="DejaVuSans-68" d="M 3513 2113 
L 3513 0 
L 2938 0 
L 2938 2094 
Q 2938 2591 2744 2837 
Q 2550 3084 2163 3084 
Q 1697 3084 1428 2787 
Q 1159 2491 1159 1978 
L 1159 0 
L 581 0 
L 581 4863 
L 1159 4863 
L 1159 2956 
Q 1366 3272 1645 3428 
Q 1925 3584 2291 3584 
Q 2894 3584 3203 3211 
Q 3513 2838 3513 2113 
z
" transform="scale(0.015625)"/>
      <path id="DejaVuSans-75" d="M 544 1381 
L 544 3500 
L 1119 3500 
L 1119 1403 
Q 1119 906 1312 657 
Q 1506 409 1894 409 
Q 2359 409 2629 706 
Q 2900 1003 2900 1516 
L 2900 3500 
L 3475 3500 
L 3475 0 
L 2900 0 
L 2900 538 
Q 2691 219 2414 64 
Q 2138 -91 1772 -91 
Q 1169 -91 856 284 
Q 544 659 544 1381 
z
M 1991 3584 
L 1991 3584 
z
" transform="scale(0.015625)"/>
      <path id="DejaVuSans-2c" d="M 750 794 
L 1409 794 
L 1409 256 
L 897 -744 
L 494 -744 
L 750 256 
L 750 794 
z
" transform="scale(0.015625)"/>
      <path id="DejaVuSans-6b" d="M 581 4863 
L 1159 4863 
L 1159 1991 
L 2875 3500 
L 3609 3500 
L 1753 1863 
L 3688 0 
L 2938 0 
L 1159 1709 
L 1159 0 
L 581 0 
L 581 4863 
z
" transform="scale(0.015625)"/>
      <path id="DejaVuSans-63" d="M 3122 3366 
L 3122 2828 
Q 2878 2963 2633 3030 
Q 2388 3097 2138 3097 
Q 1578 3097 1268 2742 
Q 959 2388 959 1747 
Q 959 1106 1268 751 
Q 1578 397 2138 397 
Q 2388 397 2633 464 
Q 2878 531 3122 666 
L 3122 134 
Q 2881 22 2623 -34 
Q 2366 -91 2075 -91 
Q 1284 -91 818 406 
Q 353 903 353 1747 
Q 353 2603 823 3093 
Q 1294 3584 2113 3584 
Q 2378 3584 2631 3529 
Q 2884 3475 3122 3366 
z
" transform="scale(0.015625)"/>
      <path id="DejaVuSans-67" d="M 2906 1791 
Q 2906 2416 2648 2759 
Q 2391 3103 1925 3103 
Q 1463 3103 1205 2759 
Q 947 2416 947 1791 
Q 947 1169 1205 825 
Q 1463 481 1925 481 
Q 2391 481 2648 825 
Q 2906 1169 2906 1791 
z
M 3481 434 
Q 3481 -459 3084 -895 
Q 2688 -1331 1869 -1331 
Q 1566 -1331 1297 -1286 
Q 1028 -1241 775 -1147 
L 775 -588 
Q 1028 -725 1275 -790 
Q 1522 -856 1778 -856 
Q 2344 -856 2625 -561 
Q 2906 -266 2906 331 
L 2906 616 
Q 2728 306 2450 153 
Q 2172 0 1784 0 
Q 1141 0 747 490 
Q 353 981 353 1791 
Q 353 2603 747 3093 
Q 1141 3584 1784 3584 
Q 2172 3584 2450 3431 
Q 2728 3278 2906 2969 
L 2906 3500 
L 3481 3500 
L 3481 434 
z
" transform="scale(0.015625)"/>
     </defs>
     <use xlink:href="#DejaVuSans-4d"/>
     <use xlink:href="#DejaVuSans-65" x="86.279297"/>
     <use xlink:href="#DejaVuSans-61" x="147.802734"/>
     <use xlink:href="#DejaVuSans-6e" x="209.082031"/>
     <use xlink:href="#DejaVuSans-20" x="272.460938"/>
     <use xlink:href="#DejaVuSans-6e" x="304.248047"/>
     <use xlink:href="#DejaVuSans-6f" x="367.626953"/>
     <use xlink:href="#DejaVuSans-76" x="428.808594"/>
     <use xlink:href="#DejaVuSans-65" x="487.988281"/>
     <use xlink:href="#DejaVuSans-6c" x="549.511719"/>
     <use xlink:href="#DejaVuSans-74" x="577.294922"/>
     <use xlink:href="#DejaVuSans-79" x="616.503906"/>
     <use xlink:href="#DejaVuSans-20" x="675.683594"/>
     <use xlink:href="#DejaVuSans-70" x="707.470703"/>
     <use xlink:href="#DejaVuSans-65" x="770.947266"/>
     <use xlink:href="#DejaVuSans-72" x="832.470703"/>
     <use xlink:href="#DejaVuSans-20" x="873.583984"/>
     <use xlink:href="#DejaVuSans-62" x="905.371094"/>
     <use xlink:href="#DejaVuSans-69" x="968.847656"/>
     <use xlink:href="#DejaVuSans-72" x="996.630859"/>
     <use xlink:href="#DejaVuSans-74" x="1037.744141"/>
     <use xlink:href="#DejaVuSans-68" x="1076.953125"/>
     <use xlink:href="#DejaVuSans-20" x="1140.332031"/>
     <use xlink:href="#DejaVuSans-79" x="1172.119141"/>
     <use xlink:href="#DejaVuSans-65" x="1231.298828"/>
     <use xlink:href="#DejaVuSans-61" x="1292.822266"/>
     <use xlink:href="#DejaVuSans-72" x="1354.101562"/>
     <use xlink:href="#DejaVuSans-20" x="1395.214844"/>
     <use xlink:href="#DejaVuSans-69" x="1427.001953"/>
     <use xlink:href="#DejaVuSans-6e" x="1454.785156"/>
     <use xlink:href="#DejaVuSans-20" x="1518.164062"/>
     <use xlink:href="#DejaVuSans-6f" x="1549.951172"/>
     <use xlink:href="#DejaVuSans-75" x="1611.132812"/>
     <use xlink:href="#DejaVuSans-72" x="1674.511719"/>
     <use xlink:href="#DejaVuSans-20" x="1715.625"/>
     <use xlink:href="#DejaVuSans-6e" x="1747.412109"/>
     <use xlink:href="#DejaVuSans-6f" x="1810.791016"/>
     <use xlink:href="#DejaVuSans-76" x="1871.972656"/>
     <use xlink:href="#DejaVuSans-65" x="1931.152344"/>
     <use xlink:href="#DejaVuSans-6c" x="1992.675781"/>
     <use xlink:href="#DejaVuSans-73" x="2020.458984"/>
     <use xlink:href="#DejaVuSans-2c" x="2072.558594"/>
     <use xlink:href="#DejaVuSans-20" x="2104.345703"/>
     <use xlink:href="#DejaVuSans-62" x="2136.132812"/>
     <use xlink:href="#DejaVuSans-72" x="2199.609375"/>
     <use xlink:href="#DejaVuSans-6f" x="2238.472656"/>
     <use xlink:href="#DejaVuSans-6b" x="2299.654297"/>
     <use xlink:href="#DejaVuSans-65" x="2353.939453"/>
     <use xlink:href="#DejaVuSans-6e" x="2415.462891"/>
     <use xlink:href="#DejaVuSans-20" x="2478.841797"/>
     <use xlink:href="#DejaVuSans-6f" x="2510.628906"/>
     <use xlink:href="#DejaVuSans-75" x="2571.810547"/>
     <use xlink:href="#DejaVuSans-74" x="2635.189453"/>
     <use xlink:href="#DejaVuSans-20" x="2674.398438"/>
     <use xlink:href="#DejaVuSans-62" x="2706.185547"/>
     <use xlink:href="#DejaVuSans-79" x="2769.662109"/>
     <use xlink:href="#DejaVuSans-20" x="2828.841797"/>
     <use xlink:href="#DejaVuSans-63" x="2860.628906"/>
     <use xlink:href="#DejaVuSans-61" x="2915.609375"/>
     <use xlink:href="#DejaVuSans-6e" x="2976.888672"/>
     <use xlink:href="#DejaVuSans-6f" x="3040.267578"/>
     <use xlink:href="#DejaVuSans-6e" x="3101.449219"/>
     <use xlink:href="#DejaVuSans-69" x="3164.828125"/>
     <use xlink:href="#DejaVuSans-63" x="3192.611328"/>
     <use xlink:href="#DejaVuSans-69" x="3247.591797"/>
     <use xlink:href="#DejaVuSans-74" x="3275.375"/>
     <use xlink:href="#DejaVuSans-79" x="3314.583984"/>
     <use xlink:href="#DejaVuSans-20" x="3373.763672"/>
     <use xlink:href="#DejaVuSans-74" x="3405.550781"/>
     <use xlink:href="#DejaVuSans-61" x="3444.759766"/>
     <use xlink:href="#DejaVuSans-67" x="3506.039062"/>
    </g>
   </g>
   <g id="legend_1">
    <g id="patch_7">
     <path d="M 573.005938 97.586875 
L 745.434063 97.586875 
Q 749.434063 97.586875 749.434063 93.586875 
L 749.434063 36.318125 
Q 749.434063 32.318125 745.434063 32.318125 
L 573.005938 32.318125 
Q 569.005938 32.318125 569.005938 36.318125 
L 569.005938 93.586875 
Q 569.005938 97.586875 573.005938 97.586875 
z
" style="fill: #eaeaf2; opacity: 0.8; stroke: #cccccc; stroke-linejoin: miter"/>
    </g>
    <g id="line2d_15">
     <path d="M 577.005938 48.515 
L 597.005938 48.515 
L 617.005938 48.515 
" style="fill: none; stroke: #0000ff; stroke-width: 2.25; stroke-linecap: round"/>
    </g>
    <g id="text_16">
     <!-- non_canon -->
     <g style="fill: #262626" transform="translate(633.005938 55.515) scale(0.2 -0.2)">
      <defs>
       <path id="DejaVuSans-5f" d="M 3263 -1063 
L 3263 -1509 
L -63 -1509 
L -63 -1063 
L 3263 -1063 
z
" transform="scale(0.015625)"/>
      </defs>
      <use xlink:href="#DejaVuSans-6e"/>
      <use xlink:href="#DejaVuSans-6f" x="63.378906"/>
      <use xlink:href="#DejaVuSans-6e" x="124.560547"/>
      <use xlink:href="#DejaVuSans-5f" x="187.939453"/>
      <use xlink:href="#DejaVuSans-63" x="237.939453"/>
      <use xlink:href="#DejaVuSans-61" x="292.919922"/>
      <use xlink:href="#DejaVuSans-6e" x="354.199219"/>
      <use xlink:href="#DejaVuSans-6f" x="417.578125"/>
      <use xlink:href="#DejaVuSans-6e" x="478.759766"/>
     </g>
    </g>
    <g id="line2d_16">
     <path d="M 577.005938 78.4275 
L 597.005938 78.4275 
L 617.005938 78.4275 
" style="fill: none; stroke: #ff0000; stroke-width: 2.25; stroke-linecap: round"/>
    </g>
    <g id="text_17">
     <!-- canon -->
     <g style="fill: #262626" transform="translate(633.005938 85.4275) scale(0.2 -0.2)">
      <use xlink:href="#DejaVuSans-63"/>
      <use xlink:href="#DejaVuSans-61" x="54.980469"/>
      <use xlink:href="#DejaVuSans-6e" x="116.259766"/>
      <use xlink:href="#DejaVuSans-6f" x="179.638672"/>
      <use xlink:href="#DejaVuSans-6e" x="240.820312"/>
     </g>
    </g>
   </g>
  </g>
 </g>
 <defs>
  <clipPath id="p4c927fb57f">
   <rect x="56.805938" y="22.318125" width="502.2" height="326.16"/>
  </clipPath>
 </defs>
</svg>
