<?xml version="1.0" encoding="utf-8" standalone="no"?>
<!DOCTYPE svg PUBLIC "-//W3C//DTD SVG 1.1//EN"
  "http://www.w3.org/Graphics/SVG/1.1/DTD/svg11.dtd">
<svg xmlns:xlink="http://www.w3.org/1999/xlink" width="756.634063pt" height="391.437812pt" viewBox="0 0 756.634063 391.437812" xmlns="http://www.w3.org/2000/svg" version="1.1">
 <metadata>
  <rdf:RDF xmlns:dc="http://purl.org/dc/elements/1.1/" xmlns:cc="http://creativecommons.org/ns#" xmlns:rdf="http://www.w3.org/1999/02/22-rdf-syntax-ns#">
   <cc:Work>
    <dc:type rdf:resource="http://purl.org/dc/dcmitype/StillImage"/>
    <dc:date>2023-06-27T20:16:13.400782</dc:date>
    <dc:format>image/svg+xml</dc:format>
    <dc:creator>
     <cc:Agent>
      <dc:title>Matplotlib v3.7.1, https://matplotlib.org/</dc:title>
     </cc:Agent>
    </dc:creator>
   </cc:Work>
  </rdf:RDF>
 </metadata>
 <defs>
  <style type="text/css">*{stroke-linejoin: round; stroke-linecap: butt}</style>
 </defs>
 <g id="figure_1">
  <g id="patch_1">
   <path d="M 0 391.437812 
L 756.634063 391.437812 
L 756.634063 0 
L 0 0 
L 0 391.437812 
z
" style="fill: none"/>
  </g>
  <g id="axes_1">
   <g id="patch_2">
    <path d="M 56.805938 348.478125 
L 559.005938 348.478125 
L 559.005938 22.318125 
L 56.805938 22.318125 
z
" style="fill: #eaeaf2"/>
   </g>
   <g id="matplotlib.axis_1">
    <g id="xtick_1">
     <g id="line2d_1">
      <path d="M 114.454474 348.478125 
L 114.454474 22.318125 
" clip-path="url(#p3ee5263010)" style="fill: none; stroke: #ffffff; stroke-linecap: round"/>
     </g>
     <g id="text_1">
      <!-- 1820 -->
      <g style="fill: #262626" transform="translate(100.456974 366.336406) scale(0.11 -0.11)">
       <defs>
        <path id="DejaVuSans-31" d="M 794 531 
L 1825 531 
L 1825 4091 
L 703 3866 
L 703 4441 
L 1819 4666 
L 2450 4666 
L 2450 531 
L 3481 531 
L 3481 0 
L 794 0 
L 794 531 
z
" transform="scale(0.015625)"/>
        <path id="DejaVuSans-38" d="M 2034 2216 
Q 1584 2216 1326 1975 
Q 1069 1734 1069 1313 
Q 1069 891 1326 650 
Q 1584 409 2034 409 
Q 2484 409 2743 651 
Q 3003 894 3003 1313 
Q 3003 1734 2745 1975 
Q 2488 2216 2034 2216 
z
M 1403 2484 
Q 997 2584 770 2862 
Q 544 3141 544 3541 
Q 544 4100 942 4425 
Q 1341 4750 2034 4750 
Q 2731 4750 3128 4425 
Q 3525 4100 3525 3541 
Q 3525 3141 3298 2862 
Q 3072 2584 2669 2484 
Q 3125 2378 3379 2068 
Q 3634 1759 3634 1313 
Q 3634 634 3220 271 
Q 2806 -91 2034 -91 
Q 1263 -91 848 271 
Q 434 634 434 1313 
Q 434 1759 690 2068 
Q 947 2378 1403 2484 
z
M 1172 3481 
Q 1172 3119 1398 2916 
Q 1625 2713 2034 2713 
Q 2441 2713 2670 2916 
Q 2900 3119 2900 3481 
Q 2900 3844 2670 4047 
Q 2441 4250 2034 4250 
Q 1625 4250 1398 4047 
Q 1172 3844 1172 3481 
z
" transform="scale(0.015625)"/>
        <path id="DejaVuSans-32" d="M 1228 531 
L 3431 531 
L 3431 0 
L 469 0 
L 469 531 
Q 828 903 1448 1529 
Q 2069 2156 2228 2338 
Q 2531 2678 2651 2914 
Q 2772 3150 2772 3378 
Q 2772 3750 2511 3984 
Q 2250 4219 1831 4219 
Q 1534 4219 1204 4116 
Q 875 4013 500 3803 
L 500 4441 
Q 881 4594 1212 4672 
Q 1544 4750 1819 4750 
Q 2544 4750 2975 4387 
Q 3406 4025 3406 3419 
Q 3406 3131 3298 2873 
Q 3191 2616 2906 2266 
Q 2828 2175 2409 1742 
Q 1991 1309 1228 531 
z
" transform="scale(0.015625)"/>
        <path id="DejaVuSans-30" d="M 2034 4250 
Q 1547 4250 1301 3770 
Q 1056 3291 1056 2328 
Q 1056 1369 1301 889 
Q 1547 409 2034 409 
Q 2525 409 2770 889 
Q 3016 1369 3016 2328 
Q 3016 3291 2770 3770 
Q 2525 4250 2034 4250 
z
M 2034 4750 
Q 2819 4750 3233 4129 
Q 3647 3509 3647 2328 
Q 3647 1150 3233 529 
Q 2819 -91 2034 -91 
Q 1250 -91 836 529 
Q 422 1150 422 2328 
Q 422 3509 836 4129 
Q 1250 4750 2034 4750 
z
" transform="scale(0.015625)"/>
       </defs>
       <use xlink:href="#DejaVuSans-31"/>
       <use xlink:href="#DejaVuSans-38" x="63.623047"/>
       <use xlink:href="#DejaVuSans-32" x="127.246094"/>
       <use xlink:href="#DejaVuSans-30" x="190.869141"/>
      </g>
     </g>
    </g>
    <g id="xtick_2">
     <g id="line2d_2">
      <path d="M 191.835059 348.478125 
L 191.835059 22.318125 
" clip-path="url(#p3ee5263010)" style="fill: none; stroke: #ffffff; stroke-linecap: round"/>
     </g>
     <g id="text_2">
      <!-- 1840 -->
      <g style="fill: #262626" transform="translate(177.837559 366.336406) scale(0.11 -0.11)">
       <defs>
        <path id="DejaVuSans-34" d="M 2419 4116 
L 825 1625 
L 2419 1625 
L 2419 4116 
z
M 2253 4666 
L 3047 4666 
L 3047 1625 
L 3713 1625 
L 3713 1100 
L 3047 1100 
L 3047 0 
L 2419 0 
L 2419 1100 
L 313 1100 
L 313 1709 
L 2253 4666 
z
" transform="scale(0.015625)"/>
       </defs>
       <use xlink:href="#DejaVuSans-31"/>
       <use xlink:href="#DejaVuSans-38" x="63.623047"/>
       <use xlink:href="#DejaVuSans-34" x="127.246094"/>
       <use xlink:href="#DejaVuSans-30" x="190.869141"/>
      </g>
     </g>
    </g>
    <g id="xtick_3">
     <g id="line2d_3">
      <path d="M 269.215645 348.478125 
L 269.215645 22.318125 
" clip-path="url(#p3ee5263010)" style="fill: none; stroke: #ffffff; stroke-linecap: round"/>
     </g>
     <g id="text_3">
      <!-- 1860 -->
      <g style="fill: #262626" transform="translate(255.218145 366.336406) scale(0.11 -0.11)">
       <defs>
        <path id="DejaVuSans-36" d="M 2113 2584 
Q 1688 2584 1439 2293 
Q 1191 2003 1191 1497 
Q 1191 994 1439 701 
Q 1688 409 2113 409 
Q 2538 409 2786 701 
Q 3034 994 3034 1497 
Q 3034 2003 2786 2293 
Q 2538 2584 2113 2584 
z
M 3366 4563 
L 3366 3988 
Q 3128 4100 2886 4159 
Q 2644 4219 2406 4219 
Q 1781 4219 1451 3797 
Q 1122 3375 1075 2522 
Q 1259 2794 1537 2939 
Q 1816 3084 2150 3084 
Q 2853 3084 3261 2657 
Q 3669 2231 3669 1497 
Q 3669 778 3244 343 
Q 2819 -91 2113 -91 
Q 1303 -91 875 529 
Q 447 1150 447 2328 
Q 447 3434 972 4092 
Q 1497 4750 2381 4750 
Q 2619 4750 2861 4703 
Q 3103 4656 3366 4563 
z
" transform="scale(0.015625)"/>
       </defs>
       <use xlink:href="#DejaVuSans-31"/>
       <use xlink:href="#DejaVuSans-38" x="63.623047"/>
       <use xlink:href="#DejaVuSans-36" x="127.246094"/>
       <use xlink:href="#DejaVuSans-30" x="190.869141"/>
      </g>
     </g>
    </g>
    <g id="xtick_4">
     <g id="line2d_4">
      <path d="M 346.59623 348.478125 
L 346.59623 22.318125 
" clip-path="url(#p3ee5263010)" style="fill: none; stroke: #ffffff; stroke-linecap: round"/>
     </g>
     <g id="text_4">
      <!-- 1880 -->
      <g style="fill: #262626" transform="translate(332.59873 366.336406) scale(0.11 -0.11)">
       <use xlink:href="#DejaVuSans-31"/>
       <use xlink:href="#DejaVuSans-38" x="63.623047"/>
       <use xlink:href="#DejaVuSans-38" x="127.246094"/>
       <use xlink:href="#DejaVuSans-30" x="190.869141"/>
      </g>
     </g>
    </g>
    <g id="xtick_5">
     <g id="line2d_5">
      <path d="M 423.976816 348.478125 
L 423.976816 22.318125 
" clip-path="url(#p3ee5263010)" style="fill: none; stroke: #ffffff; stroke-linecap: round"/>
     </g>
     <g id="text_5">
      <!-- 1900 -->
      <g style="fill: #262626" transform="translate(409.979316 366.336406) scale(0.11 -0.11)">
       <defs>
        <path id="DejaVuSans-39" d="M 703 97 
L 703 672 
Q 941 559 1184 500 
Q 1428 441 1663 441 
Q 2288 441 2617 861 
Q 2947 1281 2994 2138 
Q 2813 1869 2534 1725 
Q 2256 1581 1919 1581 
Q 1219 1581 811 2004 
Q 403 2428 403 3163 
Q 403 3881 828 4315 
Q 1253 4750 1959 4750 
Q 2769 4750 3195 4129 
Q 3622 3509 3622 2328 
Q 3622 1225 3098 567 
Q 2575 -91 1691 -91 
Q 1453 -91 1209 -44 
Q 966 3 703 97 
z
M 1959 2075 
Q 2384 2075 2632 2365 
Q 2881 2656 2881 3163 
Q 2881 3666 2632 3958 
Q 2384 4250 1959 4250 
Q 1534 4250 1286 3958 
Q 1038 3666 1038 3163 
Q 1038 2656 1286 2365 
Q 1534 2075 1959 2075 
z
" transform="scale(0.015625)"/>
       </defs>
       <use xlink:href="#DejaVuSans-31"/>
       <use xlink:href="#DejaVuSans-39" x="63.623047"/>
       <use xlink:href="#DejaVuSans-30" x="127.246094"/>
       <use xlink:href="#DejaVuSans-30" x="190.869141"/>
      </g>
     </g>
    </g>
    <g id="xtick_6">
     <g id="line2d_6">
      <path d="M 501.357401 348.478125 
L 501.357401 22.318125 
" clip-path="url(#p3ee5263010)" style="fill: none; stroke: #ffffff; stroke-linecap: round"/>
     </g>
     <g id="text_6">
      <!-- 1920 -->
      <g style="fill: #262626" transform="translate(487.359901 366.336406) scale(0.11 -0.11)">
       <use xlink:href="#DejaVuSans-31"/>
       <use xlink:href="#DejaVuSans-39" x="63.623047"/>
       <use xlink:href="#DejaVuSans-32" x="127.246094"/>
       <use xlink:href="#DejaVuSans-30" x="190.869141"/>
      </g>
     </g>
    </g>
    <g id="text_7">
     <!-- Dates -->
     <g style="fill: #262626" transform="translate(290.439375 381.742187) scale(0.12 -0.12)">
      <defs>
       <path id="DejaVuSans-44" d="M 1259 4147 
L 1259 519 
L 2022 519 
Q 2988 519 3436 956 
Q 3884 1394 3884 2338 
Q 3884 3275 3436 3711 
Q 2988 4147 2022 4147 
L 1259 4147 
z
M 628 4666 
L 1925 4666 
Q 3281 4666 3915 4102 
Q 4550 3538 4550 2338 
Q 4550 1131 3912 565 
Q 3275 0 1925 0 
L 628 0 
L 628 4666 
z
" transform="scale(0.015625)"/>
       <path id="DejaVuSans-61" d="M 2194 1759 
Q 1497 1759 1228 1600 
Q 959 1441 959 1056 
Q 959 750 1161 570 
Q 1363 391 1709 391 
Q 2188 391 2477 730 
Q 2766 1069 2766 1631 
L 2766 1759 
L 2194 1759 
z
M 3341 1997 
L 3341 0 
L 2766 0 
L 2766 531 
Q 2569 213 2275 61 
Q 1981 -91 1556 -91 
Q 1019 -91 701 211 
Q 384 513 384 1019 
Q 384 1609 779 1909 
Q 1175 2209 1959 2209 
L 2766 2209 
L 2766 2266 
Q 2766 2663 2505 2880 
Q 2244 3097 1772 3097 
Q 1472 3097 1187 3025 
Q 903 2953 641 2809 
L 641 3341 
Q 956 3463 1253 3523 
Q 1550 3584 1831 3584 
Q 2591 3584 2966 3190 
Q 3341 2797 3341 1997 
z
" transform="scale(0.015625)"/>
       <path id="DejaVuSans-74" d="M 1172 4494 
L 1172 3500 
L 2356 3500 
L 2356 3053 
L 1172 3053 
L 1172 1153 
Q 1172 725 1289 603 
Q 1406 481 1766 481 
L 2356 481 
L 2356 0 
L 1766 0 
Q 1100 0 847 248 
Q 594 497 594 1153 
L 594 3053 
L 172 3053 
L 172 3500 
L 594 3500 
L 594 4494 
L 1172 4494 
z
" transform="scale(0.015625)"/>
       <path id="DejaVuSans-65" d="M 3597 1894 
L 3597 1613 
L 953 1613 
Q 991 1019 1311 708 
Q 1631 397 2203 397 
Q 2534 397 2845 478 
Q 3156 559 3463 722 
L 3463 178 
Q 3153 47 2828 -22 
Q 2503 -91 2169 -91 
Q 1331 -91 842 396 
Q 353 884 353 1716 
Q 353 2575 817 3079 
Q 1281 3584 2069 3584 
Q 2775 3584 3186 3129 
Q 3597 2675 3597 1894 
z
M 3022 2063 
Q 3016 2534 2758 2815 
Q 2500 3097 2075 3097 
Q 1594 3097 1305 2825 
Q 1016 2553 972 2059 
L 3022 2063 
z
" transform="scale(0.015625)"/>
       <path id="DejaVuSans-73" d="M 2834 3397 
L 2834 2853 
Q 2591 2978 2328 3040 
Q 2066 3103 1784 3103 
Q 1356 3103 1142 2972 
Q 928 2841 928 2578 
Q 928 2378 1081 2264 
Q 1234 2150 1697 2047 
L 1894 2003 
Q 2506 1872 2764 1633 
Q 3022 1394 3022 966 
Q 3022 478 2636 193 
Q 2250 -91 1575 -91 
Q 1294 -91 989 -36 
Q 684 19 347 128 
L 347 722 
Q 666 556 975 473 
Q 1284 391 1588 391 
Q 1994 391 2212 530 
Q 2431 669 2431 922 
Q 2431 1156 2273 1281 
Q 2116 1406 1581 1522 
L 1381 1569 
Q 847 1681 609 1914 
Q 372 2147 372 2553 
Q 372 3047 722 3315 
Q 1072 3584 1716 3584 
Q 2034 3584 2315 3537 
Q 2597 3491 2834 3397 
z
" transform="scale(0.015625)"/>
      </defs>
      <use xlink:href="#DejaVuSans-44"/>
      <use xlink:href="#DejaVuSans-61" x="77.001953"/>
      <use xlink:href="#DejaVuSans-74" x="138.28125"/>
      <use xlink:href="#DejaVuSans-65" x="177.490234"/>
      <use xlink:href="#DejaVuSans-73" x="239.013672"/>
     </g>
    </g>
   </g>
   <g id="matplotlib.axis_2">
    <g id="ytick_1">
     <g id="line2d_7">
      <path d="M 56.805938 306.666339 
L 559.005938 306.666339 
" clip-path="url(#p3ee5263010)" style="fill: none; stroke: #ffffff; stroke-linecap: round"/>
     </g>
     <g id="text_8">
      <!-- 0.07 -->
      <g style="fill: #262626" transform="translate(22.81375 310.845479) scale(0.11 -0.11)">
       <defs>
        <path id="DejaVuSans-2e" d="M 684 794 
L 1344 794 
L 1344 0 
L 684 0 
L 684 794 
z
" transform="scale(0.015625)"/>
        <path id="DejaVuSans-37" d="M 525 4666 
L 3525 4666 
L 3525 4397 
L 1831 0 
L 1172 0 
L 2766 4134 
L 525 4134 
L 525 4666 
z
" transform="scale(0.015625)"/>
       </defs>
       <use xlink:href="#DejaVuSans-30"/>
       <use xlink:href="#DejaVuSans-2e" x="63.623047"/>
       <use xlink:href="#DejaVuSans-30" x="95.410156"/>
       <use xlink:href="#DejaVuSans-37" x="159.033203"/>
      </g>
     </g>
    </g>
    <g id="ytick_2">
     <g id="line2d_8">
      <path d="M 56.805938 254.500153 
L 559.005938 254.500153 
" clip-path="url(#p3ee5263010)" style="fill: none; stroke: #ffffff; stroke-linecap: round"/>
     </g>
     <g id="text_9">
      <!-- 0.08 -->
      <g style="fill: #262626" transform="translate(22.81375 258.679294) scale(0.11 -0.11)">
       <use xlink:href="#DejaVuSans-30"/>
       <use xlink:href="#DejaVuSans-2e" x="63.623047"/>
       <use xlink:href="#DejaVuSans-30" x="95.410156"/>
       <use xlink:href="#DejaVuSans-38" x="159.033203"/>
      </g>
     </g>
    </g>
    <g id="ytick_3">
     <g id="line2d_9">
      <path d="M 56.805938 202.333968 
L 559.005938 202.333968 
" clip-path="url(#p3ee5263010)" style="fill: none; stroke: #ffffff; stroke-linecap: round"/>
     </g>
     <g id="text_10">
      <!-- 0.09 -->
      <g style="fill: #262626" transform="translate(22.81375 206.513108) scale(0.11 -0.11)">
       <use xlink:href="#DejaVuSans-30"/>
       <use xlink:href="#DejaVuSans-2e" x="63.623047"/>
       <use xlink:href="#DejaVuSans-30" x="95.410156"/>
       <use xlink:href="#DejaVuSans-39" x="159.033203"/>
      </g>
     </g>
    </g>
    <g id="ytick_4">
     <g id="line2d_10">
      <path d="M 56.805938 150.167782 
L 559.005938 150.167782 
" clip-path="url(#p3ee5263010)" style="fill: none; stroke: #ffffff; stroke-linecap: round"/>
     </g>
     <g id="text_11">
      <!-- 0.10 -->
      <g style="fill: #262626" transform="translate(22.81375 154.346923) scale(0.11 -0.11)">
       <use xlink:href="#DejaVuSans-30"/>
       <use xlink:href="#DejaVuSans-2e" x="63.623047"/>
       <use xlink:href="#DejaVuSans-31" x="95.410156"/>
       <use xlink:href="#DejaVuSans-30" x="159.033203"/>
      </g>
     </g>
    </g>
    <g id="ytick_5">
     <g id="line2d_11">
      <path d="M 56.805938 98.001596 
L 559.005938 98.001596 
" clip-path="url(#p3ee5263010)" style="fill: none; stroke: #ffffff; stroke-linecap: round"/>
     </g>
     <g id="text_12">
      <!-- 0.11 -->
      <g style="fill: #262626" transform="translate(22.81375 102.180737) scale(0.11 -0.11)">
       <use xlink:href="#DejaVuSans-30"/>
       <use xlink:href="#DejaVuSans-2e" x="63.623047"/>
       <use xlink:href="#DejaVuSans-31" x="95.410156"/>
       <use xlink:href="#DejaVuSans-31" x="159.033203"/>
      </g>
     </g>
    </g>
    <g id="ytick_6">
     <g id="line2d_12">
      <path d="M 56.805938 45.835411 
L 559.005938 45.835411 
" clip-path="url(#p3ee5263010)" style="fill: none; stroke: #ffffff; stroke-linecap: round"/>
     </g>
     <g id="text_13">
      <!-- 0.12 -->
      <g style="fill: #262626" transform="translate(22.81375 50.014552) scale(0.11 -0.11)">
       <use xlink:href="#DejaVuSans-30"/>
       <use xlink:href="#DejaVuSans-2e" x="63.623047"/>
       <use xlink:href="#DejaVuSans-31" x="95.410156"/>
       <use xlink:href="#DejaVuSans-32" x="159.033203"/>
      </g>
     </g>
    </g>
    <g id="text_14">
     <!-- Mean entropy -->
     <g style="fill: #262626" transform="translate(16.318125 226.862812) rotate(-90) scale(0.12 -0.12)">
      <defs>
       <path id="DejaVuSans-4d" d="M 628 4666 
L 1569 4666 
L 2759 1491 
L 3956 4666 
L 4897 4666 
L 4897 0 
L 4281 0 
L 4281 4097 
L 3078 897 
L 2444 897 
L 1241 4097 
L 1241 0 
L 628 0 
L 628 4666 
z
" transform="scale(0.015625)"/>
       <path id="DejaVuSans-6e" d="M 3513 2113 
L 3513 0 
L 2938 0 
L 2938 2094 
Q 2938 2591 2744 2837 
Q 2550 3084 2163 3084 
Q 1697 3084 1428 2787 
Q 1159 2491 1159 1978 
L 1159 0 
L 581 0 
L 581 3500 
L 1159 3500 
L 1159 2956 
Q 1366 3272 1645 3428 
Q 1925 3584 2291 3584 
Q 2894 3584 3203 3211 
Q 3513 2838 3513 2113 
z
" transform="scale(0.015625)"/>
       <path id="DejaVuSans-20" transform="scale(0.015625)"/>
       <path id="DejaVuSans-72" d="M 2631 2963 
Q 2534 3019 2420 3045 
Q 2306 3072 2169 3072 
Q 1681 3072 1420 2755 
Q 1159 2438 1159 1844 
L 1159 0 
L 581 0 
L 581 3500 
L 1159 3500 
L 1159 2956 
Q 1341 3275 1631 3429 
Q 1922 3584 2338 3584 
Q 2397 3584 2469 3576 
Q 2541 3569 2628 3553 
L 2631 2963 
z
" transform="scale(0.015625)"/>
       <path id="DejaVuSans-6f" d="M 1959 3097 
Q 1497 3097 1228 2736 
Q 959 2375 959 1747 
Q 959 1119 1226 758 
Q 1494 397 1959 397 
Q 2419 397 2687 759 
Q 2956 1122 2956 1747 
Q 2956 2369 2687 2733 
Q 2419 3097 1959 3097 
z
M 1959 3584 
Q 2709 3584 3137 3096 
Q 3566 2609 3566 1747 
Q 3566 888 3137 398 
Q 2709 -91 1959 -91 
Q 1206 -91 779 398 
Q 353 888 353 1747 
Q 353 2609 779 3096 
Q 1206 3584 1959 3584 
z
" transform="scale(0.015625)"/>
       <path id="DejaVuSans-70" d="M 1159 525 
L 1159 -1331 
L 581 -1331 
L 581 3500 
L 1159 3500 
L 1159 2969 
Q 1341 3281 1617 3432 
Q 1894 3584 2278 3584 
Q 2916 3584 3314 3078 
Q 3713 2572 3713 1747 
Q 3713 922 3314 415 
Q 2916 -91 2278 -91 
Q 1894 -91 1617 61 
Q 1341 213 1159 525 
z
M 3116 1747 
Q 3116 2381 2855 2742 
Q 2594 3103 2138 3103 
Q 1681 3103 1420 2742 
Q 1159 2381 1159 1747 
Q 1159 1113 1420 752 
Q 1681 391 2138 391 
Q 2594 391 2855 752 
Q 3116 1113 3116 1747 
z
" transform="scale(0.015625)"/>
       <path id="DejaVuSans-79" d="M 2059 -325 
Q 1816 -950 1584 -1140 
Q 1353 -1331 966 -1331 
L 506 -1331 
L 506 -850 
L 844 -850 
Q 1081 -850 1212 -737 
Q 1344 -625 1503 -206 
L 1606 56 
L 191 3500 
L 800 3500 
L 1894 763 
L 2988 3500 
L 3597 3500 
L 2059 -325 
z
" transform="scale(0.015625)"/>
      </defs>
      <use xlink:href="#DejaVuSans-4d"/>
      <use xlink:href="#DejaVuSans-65" x="86.279297"/>
      <use xlink:href="#DejaVuSans-61" x="147.802734"/>
      <use xlink:href="#DejaVuSans-6e" x="209.082031"/>
      <use xlink:href="#DejaVuSans-20" x="272.460938"/>
      <use xlink:href="#DejaVuSans-65" x="304.248047"/>
      <use xlink:href="#DejaVuSans-6e" x="365.771484"/>
      <use xlink:href="#DejaVuSans-74" x="429.150391"/>
      <use xlink:href="#DejaVuSans-72" x="468.359375"/>
      <use xlink:href="#DejaVuSans-6f" x="507.222656"/>
      <use xlink:href="#DejaVuSans-70" x="568.404297"/>
      <use xlink:href="#DejaVuSans-79" x="631.880859"/>
     </g>
    </g>
   </g>
   <g id="PolyCollection_1">
    <defs>
     <path id="m10d352c9cb" d="M 79.63321 -208.247438 
L 79.63321 -113.00459 
L 84.24478 -114.399419 
L 88.856351 -115.244234 
L 93.467921 -115.239694 
L 98.079491 -116.17791 
L 102.691061 -117.194035 
L 107.302632 -117.786589 
L 111.914202 -117.878078 
L 116.525772 -117.744397 
L 121.137342 -117.440348 
L 125.748913 -116.928828 
L 130.360483 -116.621405 
L 134.972053 -116.42519 
L 139.583623 -115.400171 
L 144.195194 -115.633249 
L 148.806764 -114.515887 
L 153.418334 -113.763391 
L 158.029904 -113.64429 
L 162.641475 -112.723206 
L 167.253045 -111.774469 
L 171.864615 -111.350014 
L 176.476185 -110.89871 
L 181.087756 -110.242595 
L 185.699326 -109.53743 
L 190.310896 -109.086616 
L 194.922466 -108.739594 
L 199.534037 -108.420445 
L 204.145607 -108.109836 
L 208.757177 -107.803752 
L 213.368747 -107.624026 
L 217.980318 -107.094285 
L 222.591888 -107.420935 
L 227.203458 -107.483671 
L 231.815028 -107.746331 
L 236.426599 -108.032035 
L 241.038169 -108.670819 
L 245.649739 -109.146985 
L 250.261309 -109.547149 
L 254.87288 -110.035226 
L 259.48445 -110.14465 
L 264.09602 -110.763375 
L 268.70759 -111.659985 
L 273.319161 -112.359343 
L 277.930731 -112.829496 
L 282.542301 -112.868867 
L 287.153871 -112.841005 
L 291.765442 -113.201296 
L 296.377012 -113.500241 
L 300.988582 -114.23046 
L 305.600152 -115.473265 
L 310.211723 -116.22994 
L 314.823293 -116.388798 
L 319.434863 -116.522114 
L 324.046433 -117.514697 
L 328.658004 -117.561711 
L 333.269574 -118.398746 
L 337.881144 -119.015856 
L 342.492714 -119.961016 
L 347.104285 -120.350284 
L 351.715855 -120.913897 
L 356.327425 -122.046741 
L 360.938995 -123.019085 
L 365.550566 -123.569866 
L 370.162136 -124.370238 
L 374.773706 -125.065643 
L 379.385276 -125.996495 
L 383.996847 -127.188735 
L 388.608417 -128.186668 
L 393.219987 -129.449933 
L 397.831557 -130.294544 
L 402.443128 -130.497918 
L 407.054698 -130.93353 
L 411.666268 -131.285639 
L 416.277838 -132.097313 
L 420.889409 -131.980051 
L 425.500979 -131.980411 
L 430.112549 -131.375561 
L 434.724119 -130.184476 
L 439.33569 -129.09126 
L 443.94726 -128.280979 
L 448.55883 -127.513381 
L 453.1704 -126.625564 
L 457.781971 -125.518894 
L 462.393541 -124.201624 
L 467.005111 -123.959097 
L 471.616681 -122.740818 
L 476.228252 -120.708116 
L 480.839822 -117.493329 
L 485.451392 -113.894392 
L 490.062962 -110.346046 
L 494.674533 -107.206837 
L 499.286103 -104.27061 
L 503.897673 -98.563325 
L 508.509243 -93.613652 
L 513.120814 -88.479258 
L 517.732384 -82.944447 
L 522.343954 -76.507235 
L 526.955524 -70.951148 
L 531.567095 -64.52633 
L 536.178665 -57.785142 
L 536.178665 -307.319284 
L 536.178665 -307.319284 
L 531.567095 -300.589438 
L 526.955524 -293.975241 
L 522.343954 -287.4849 
L 517.732384 -281.117885 
L 513.120814 -274.825274 
L 508.509243 -268.645612 
L 503.897673 -262.612177 
L 499.286103 -256.663256 
L 494.674533 -250.206601 
L 490.062962 -245.377098 
L 485.451392 -237.914347 
L 480.839822 -232.047903 
L 476.228252 -225.488567 
L 471.616681 -219.717214 
L 467.005111 -215.102269 
L 462.393541 -209.505716 
L 457.781971 -204.983884 
L 453.1704 -201.557867 
L 448.55883 -199.504342 
L 443.94726 -197.041246 
L 439.33569 -194.6414 
L 434.724119 -192.579441 
L 430.112549 -190.917314 
L 425.500979 -189.280077 
L 420.889409 -187.979464 
L 416.277838 -187.12748 
L 411.666268 -186.569208 
L 407.054698 -185.701738 
L 402.443128 -184.655052 
L 397.831557 -183.971802 
L 393.219987 -182.427361 
L 388.608417 -182.374098 
L 383.996847 -181.406833 
L 379.385276 -180.303867 
L 374.773706 -179.088548 
L 370.162136 -177.743311 
L 365.550566 -177.074942 
L 360.938995 -175.674262 
L 356.327425 -174.919906 
L 351.715855 -173.908205 
L 347.104285 -172.652101 
L 342.492714 -171.841472 
L 337.881144 -169.764675 
L 333.269574 -168.698087 
L 328.658004 -167.298371 
L 324.046433 -166.354151 
L 319.434863 -165.353945 
L 314.823293 -164.181572 
L 310.211723 -162.741527 
L 305.600152 -161.008781 
L 300.988582 -159.76784 
L 296.377012 -158.282839 
L 291.765442 -156.760498 
L 287.153871 -155.648357 
L 282.542301 -153.904496 
L 277.930731 -152.731388 
L 273.319161 -152.197026 
L 268.70759 -150.859194 
L 264.09602 -149.928039 
L 259.48445 -149.381862 
L 254.87288 -148.703165 
L 250.261309 -148.245974 
L 245.649739 -147.288649 
L 241.038169 -147.206715 
L 236.426599 -147.100499 
L 231.815028 -146.546909 
L 227.203458 -146.11221 
L 222.591888 -145.337926 
L 217.980318 -144.811607 
L 213.368747 -144.686932 
L 208.757177 -144.917983 
L 204.145607 -144.787843 
L 199.534037 -144.971742 
L 194.922466 -144.964185 
L 190.310896 -145.266219 
L 185.699326 -145.102609 
L 181.087756 -145.12849 
L 176.476185 -145.702736 
L 171.864615 -146.578165 
L 167.253045 -146.948777 
L 162.641475 -147.585895 
L 158.029904 -148.465973 
L 153.418334 -149.314027 
L 148.806764 -150.614927 
L 144.195194 -151.506241 
L 139.583623 -152.521551 
L 134.972053 -154.594625 
L 130.360483 -156.78414 
L 125.748913 -159.971164 
L 121.137342 -163.451715 
L 116.525772 -167.563965 
L 111.914202 -171.480284 
L 107.302632 -175.02538 
L 102.691061 -179.911988 
L 98.079491 -183.957382 
L 93.467921 -189.25167 
L 88.856351 -194.684001 
L 84.24478 -201.527747 
L 79.63321 -208.247438 
z
" style="stroke: #ffffff; stroke-opacity: 0.15"/>
    </defs>
    <g clip-path="url(#p3ee5263010)">
     <use xlink:href="#m10d352c9cb" x="0" y="391.437812" style="fill: #0000ff; fill-opacity: 0.15; stroke: #ffffff; stroke-opacity: 0.15"/>
    </g>
   </g>
   <g id="PolyCollection_2">
    <defs>
     <path id="m649f8466d9" d="M 79.63321 -354.294233 
L 79.63321 -160.672952 
L 84.24478 -164.986735 
L 88.856351 -170.415373 
L 93.467921 -172.34684 
L 98.079491 -175.265459 
L 102.691061 -176.667212 
L 107.302632 -178.452606 
L 111.914202 -180.566947 
L 116.525772 -181.595414 
L 121.137342 -181.372882 
L 125.748913 -184.191104 
L 130.360483 -182.71819 
L 134.972053 -182.043119 
L 139.583623 -180.784061 
L 144.195194 -179.407183 
L 148.806764 -177.158454 
L 153.418334 -175.691824 
L 158.029904 -174.023149 
L 162.641475 -172.896855 
L 167.253045 -171.157149 
L 171.864615 -169.708094 
L 176.476185 -167.40067 
L 181.087756 -165.060257 
L 185.699326 -163.881186 
L 190.310896 -162.371409 
L 194.922466 -160.795413 
L 199.534037 -160.360821 
L 204.145607 -159.840821 
L 208.757177 -159.827157 
L 213.368747 -158.948575 
L 217.980318 -158.129402 
L 222.591888 -157.899988 
L 227.203458 -158.60509 
L 231.815028 -158.891784 
L 236.426599 -159.370751 
L 241.038169 -160.894103 
L 245.649739 -161.292991 
L 250.261309 -161.676877 
L 254.87288 -162.91345 
L 259.48445 -162.94998 
L 264.09602 -163.528094 
L 268.70759 -164.605996 
L 273.319161 -165.918773 
L 277.930731 -167.316321 
L 282.542301 -167.411963 
L 287.153871 -168.487849 
L 291.765442 -169.097657 
L 296.377012 -170.418097 
L 300.988582 -172.004859 
L 305.600152 -172.365235 
L 310.211723 -173.909723 
L 314.823293 -174.730793 
L 319.434863 -175.612818 
L 324.046433 -177.182115 
L 328.658004 -177.916312 
L 333.269574 -179.186035 
L 337.881144 -181.113174 
L 342.492714 -180.882272 
L 347.104285 -181.230776 
L 351.715855 -181.341164 
L 356.327425 -180.638993 
L 360.938995 -180.650157 
L 365.550566 -180.653098 
L 370.162136 -180.685085 
L 374.773706 -179.284015 
L 379.385276 -179.543184 
L 383.996847 -179.585638 
L 388.608417 -179.427432 
L 393.219987 -180.127305 
L 397.831557 -179.425075 
L 402.443128 -178.40702 
L 407.054698 -178.641682 
L 411.666268 -178.70352 
L 416.277838 -179.433724 
L 420.889409 -179.777925 
L 425.500979 -179.972437 
L 430.112549 -178.545728 
L 434.724119 -177.827179 
L 439.33569 -176.340427 
L 443.94726 -174.816488 
L 448.55883 -174.399077 
L 453.1704 -173.822926 
L 457.781971 -172.654097 
L 462.393541 -171.150154 
L 467.005111 -169.733168 
L 471.616681 -167.927899 
L 476.228252 -165.103229 
L 480.839822 -162.38783 
L 485.451392 -159.267232 
L 490.062962 -154.217191 
L 494.674533 -149.532905 
L 499.286103 -146.704572 
L 503.897673 -140.477294 
L 508.509243 -132.20415 
L 513.120814 -125.73007 
L 517.732384 -118.305057 
L 522.343954 -108.429132 
L 526.955524 -97.223452 
L 531.567095 -88.851233 
L 536.178665 -77.87012 
L 536.178665 -275.663819 
L 536.178665 -275.663819 
L 531.567095 -271.490028 
L 526.955524 -265.890985 
L 522.343954 -260.989227 
L 517.732384 -257.01935 
L 513.120814 -256.759003 
L 508.509243 -254.563699 
L 503.897673 -252.128282 
L 499.286103 -250.932856 
L 494.674533 -248.231757 
L 490.062962 -248.029869 
L 485.451392 -248.159769 
L 480.839822 -249.097802 
L 476.228252 -249.914573 
L 471.616681 -250.602461 
L 467.005111 -251.557765 
L 462.393541 -251.785717 
L 457.781971 -254.439738 
L 453.1704 -257.458539 
L 448.55883 -259.169787 
L 443.94726 -260.843675 
L 439.33569 -262.057578 
L 434.724119 -262.853857 
L 430.112549 -263.923365 
L 425.500979 -263.581014 
L 420.889409 -265.372942 
L 416.277838 -266.12056 
L 411.666268 -266.182721 
L 407.054698 -265.953245 
L 402.443128 -266.579353 
L 397.831557 -266.347405 
L 393.219987 -265.831767 
L 388.608417 -266.072434 
L 383.996847 -266.140889 
L 379.385276 -264.979759 
L 374.773706 -263.698567 
L 370.162136 -262.819685 
L 365.550566 -262.301135 
L 360.938995 -262.978045 
L 356.327425 -262.571978 
L 351.715855 -261.844694 
L 347.104285 -260.632538 
L 342.492714 -259.787328 
L 337.881144 -258.795539 
L 333.269574 -257.770481 
L 328.658004 -257.281784 
L 324.046433 -256.648609 
L 319.434863 -255.756519 
L 314.823293 -255.708865 
L 310.211723 -255.195277 
L 305.600152 -256.14183 
L 300.988582 -256.349408 
L 296.377012 -256.268756 
L 291.765442 -255.748645 
L 287.153871 -256.480924 
L 282.542301 -255.676868 
L 277.930731 -255.674373 
L 273.319161 -255.883862 
L 268.70759 -256.489386 
L 264.09602 -257.526863 
L 259.48445 -257.73768 
L 254.87288 -258.417714 
L 250.261309 -258.410966 
L 245.649739 -258.784448 
L 241.038169 -259.700124 
L 236.426599 -260.244908 
L 231.815028 -260.132078 
L 227.203458 -260.551603 
L 222.591888 -260.864083 
L 217.980318 -261.540225 
L 213.368747 -261.321605 
L 208.757177 -261.920839 
L 204.145607 -263.406377 
L 199.534037 -262.416825 
L 194.922466 -262.823793 
L 190.310896 -263.379327 
L 185.699326 -263.482661 
L 181.087756 -264.146904 
L 176.476185 -263.636371 
L 171.864615 -264.166889 
L 167.253045 -263.986924 
L 162.641475 -265.867424 
L 158.029904 -266.591847 
L 153.418334 -266.428925 
L 148.806764 -266.446592 
L 144.195194 -265.829378 
L 139.583623 -267.944393 
L 134.972053 -268.904469 
L 130.360483 -269.585669 
L 125.748913 -273.113064 
L 121.137342 -278.515109 
L 116.525772 -282.657336 
L 111.914202 -288.167345 
L 107.302632 -291.918553 
L 102.691061 -299.890998 
L 98.079491 -309.239511 
L 93.467921 -320.565457 
L 88.856351 -330.433987 
L 84.24478 -342.831364 
L 79.63321 -354.294233 
z
" style="stroke: #ffffff; stroke-opacity: 0.15"/>
    </defs>
    <g clip-path="url(#p3ee5263010)">
     <use xlink:href="#m649f8466d9" x="0" y="391.437812" style="fill: #ff0000; fill-opacity: 0.15; stroke: #ffffff; stroke-opacity: 0.15"/>
    </g>
   </g>
   <g id="line2d_13">
    <path d="M 79.63321 232.26343 
L 84.24478 234.899205 
L 88.856351 237.407081 
L 93.467921 239.789382 
L 98.079491 242.048436 
L 102.691061 244.186569 
L 107.302632 246.206106 
L 111.914202 248.109374 
L 116.525772 249.898698 
L 121.137342 251.576406 
L 125.748913 253.144822 
L 130.360483 254.606274 
L 134.972053 255.963087 
L 139.583623 257.217587 
L 144.195194 258.372101 
L 148.806764 259.428954 
L 153.418334 260.390472 
L 158.029904 261.258983 
L 162.641475 262.036811 
L 167.253045 262.726283 
L 171.864615 263.329726 
L 176.476185 263.849464 
L 181.087756 264.287825 
L 185.699326 264.647134 
L 190.310896 264.929718 
L 194.922466 265.137902 
L 199.534037 265.274013 
L 204.145607 265.340377 
L 208.757177 265.339319 
L 213.368747 265.273167 
L 217.980318 265.144246 
L 222.591888 264.954882 
L 227.203458 264.707401 
L 231.815028 264.40413 
L 236.426599 264.047394 
L 241.038169 263.63952 
L 245.649739 263.182834 
L 250.261309 262.679661 
L 254.87288 262.132329 
L 259.48445 261.543162 
L 264.09602 260.914488 
L 268.70759 260.248632 
L 273.319161 259.54792 
L 277.930731 258.814679 
L 282.542301 258.051235 
L 287.153871 257.259913 
L 291.765442 256.44304 
L 296.377012 255.602942 
L 300.988582 254.741945 
L 305.600152 253.862375 
L 310.211723 252.966559 
L 314.823293 252.056821 
L 319.434863 251.135489 
L 324.046433 250.204889 
L 328.658004 249.267347 
L 333.269574 248.325188 
L 337.881144 247.380739 
L 342.492714 246.436326 
L 347.104285 245.494275 
L 351.715855 244.556912 
L 356.327425 243.626563 
L 360.938995 242.705555 
L 365.550566 241.796214 
L 370.162136 240.900865 
L 374.773706 240.021835 
L 379.385276 239.161449 
L 383.996847 238.322035 
L 388.608417 237.505917 
L 393.219987 236.715423 
L 397.831557 235.952878 
L 402.443128 235.220608 
L 407.054698 234.52094 
L 411.666268 233.856199 
L 416.277838 233.228712 
L 420.889409 232.640805 
L 425.500979 232.094804 
L 430.112549 231.593034 
L 434.724119 231.137823 
L 439.33569 230.731496 
L 443.94726 230.376379 
L 448.55883 230.074799 
L 453.1704 229.829081 
L 457.781971 229.641552 
L 462.393541 229.514537 
L 467.005111 229.450363 
L 471.616681 229.451357 
L 476.228252 229.519843 
L 480.839822 229.658149 
L 485.451392 229.868599 
L 490.062962 230.153521 
L 494.674533 230.515241 
L 499.286103 230.956084 
L 503.897673 231.478377 
L 508.509243 232.084445 
L 513.120814 232.776616 
L 517.732384 233.557214 
L 522.343954 234.428567 
L 526.955524 235.393 
L 531.567095 236.452839 
L 536.178665 237.61041 
" clip-path="url(#p3ee5263010)" style="fill: none; stroke: #0000ff; stroke-width: 2.25; stroke-linecap: round"/>
   </g>
   <g id="line2d_14">
    <path d="M 79.63321 128.128706 
L 84.24478 132.264205 
L 88.856351 136.211248 
L 93.467921 139.973634 
L 98.079491 143.55516 
L 102.691061 146.959624 
L 107.302632 150.190824 
L 111.914202 153.252557 
L 116.525772 156.148621 
L 121.137342 158.882814 
L 125.748913 161.458933 
L 130.360483 163.880776 
L 134.972053 166.152141 
L 139.583623 168.276826 
L 144.195194 170.258628 
L 148.806764 172.101345 
L 153.418334 173.808774 
L 158.029904 175.384714 
L 162.641475 176.832962 
L 167.253045 178.157316 
L 171.864615 179.361573 
L 176.476185 180.449531 
L 181.087756 181.424988 
L 185.699326 182.291742 
L 190.310896 183.05359 
L 194.922466 183.71433 
L 199.534037 184.277759 
L 204.145607 184.747676 
L 208.757177 185.127878 
L 213.368747 185.422163 
L 217.980318 185.634328 
L 222.591888 185.768171 
L 227.203458 185.827491 
L 231.815028 185.816083 
L 236.426599 185.737748 
L 241.038169 185.596281 
L 245.649739 185.39548 
L 250.261309 185.139145 
L 254.87288 184.831071 
L 259.48445 184.475057 
L 264.09602 184.0749 
L 268.70759 183.634399 
L 273.319161 183.157351 
L 277.930731 182.647553 
L 282.542301 182.108804 
L 287.153871 181.5449 
L 291.765442 180.95964 
L 296.377012 180.356822 
L 300.988582 179.740243 
L 305.600152 179.1137 
L 310.211723 178.480993 
L 314.823293 177.845917 
L 319.434863 177.212271 
L 324.046433 176.583853 
L 328.658004 175.96446 
L 333.269574 175.35789 
L 337.881144 174.767941 
L 342.492714 174.198411 
L 347.104285 173.653096 
L 351.715855 173.135796 
L 356.327425 172.650307 
L 360.938995 172.200427 
L 365.550566 171.789954 
L 370.162136 171.422686 
L 374.773706 171.10242 
L 379.385276 170.832954 
L 383.996847 170.618086 
L 388.608417 170.461613 
L 393.219987 170.367333 
L 397.831557 170.339045 
L 402.443128 170.380545 
L 407.054698 170.495631 
L 411.666268 170.688101 
L 416.277838 170.961753 
L 420.889409 171.320384 
L 425.500979 171.767792 
L 430.112549 172.307775 
L 434.724119 172.944131 
L 439.33569 173.680657 
L 443.94726 174.52115 
L 448.55883 175.469409 
L 453.1704 176.529232 
L 457.781971 177.704415 
L 462.393541 178.998757 
L 467.005111 180.416056 
L 471.616681 181.960109 
L 476.228252 183.634713 
L 480.839822 185.443667 
L 485.451392 187.390768 
L 490.062962 189.479814 
L 494.674533 191.714603 
L 499.286103 194.098932 
L 503.897673 196.636599 
L 508.509243 199.331401 
L 513.120814 202.187137 
L 517.732384 205.207605 
L 522.343954 208.396601 
L 526.955524 211.757923 
L 531.567095 215.29537 
L 536.178665 219.012739 
" clip-path="url(#p3ee5263010)" style="fill: none; stroke: #ff0000; stroke-width: 2.25; stroke-linecap: round"/>
   </g>
   <g id="patch_3">
    <path d="M 56.805938 348.478125 
L 56.805938 22.318125 
" style="fill: none; stroke: #ffffff; stroke-width: 1.25; stroke-linejoin: miter; stroke-linecap: square"/>
   </g>
   <g id="patch_4">
    <path d="M 559.005938 348.478125 
L 559.005938 22.318125 
" style="fill: none; stroke: #ffffff; stroke-width: 1.25; stroke-linejoin: miter; stroke-linecap: square"/>
   </g>
   <g id="patch_5">
    <path d="M 56.805938 348.478125 
L 559.005938 348.478125 
" style="fill: none; stroke: #ffffff; stroke-width: 1.25; stroke-linejoin: miter; stroke-linecap: square"/>
   </g>
   <g id="patch_6">
    <path d="M 56.805938 22.318125 
L 559.005938 22.318125 
" style="fill: none; stroke: #ffffff; stroke-width: 1.25; stroke-linejoin: miter; stroke-linecap: square"/>
   </g>
   <g id="text_15">
    <!-- Mean novelty per birth year in our novels, broken out by canonicity tag -->
    <g style="fill: #262626" transform="translate(93.735 16.318125) scale(0.12 -0.12)">
     <defs>
      <path id="DejaVuSans-76" d="M 191 3500 
L 800 3500 
L 1894 563 
L 2988 3500 
L 3597 3500 
L 2284 0 
L 1503 0 
L 191 3500 
z
" transform="scale(0.015625)"/>
      <path id="DejaVuSans-6c" d="M 603 4863 
L 1178 4863 
L 1178 0 
L 603 0 
L 603 4863 
z
" transform="scale(0.015625)"/>
      <path id="DejaVuSans-62" d="M 3116 1747 
Q 3116 2381 2855 2742 
Q 2594 3103 2138 3103 
Q 1681 3103 1420 2742 
Q 1159 2381 1159 1747 
Q 1159 1113 1420 752 
Q 1681 391 2138 391 
Q 2594 391 2855 752 
Q 3116 1113 3116 1747 
z
M 1159 2969 
Q 1341 3281 1617 3432 
Q 1894 3584 2278 3584 
Q 2916 3584 3314 3078 
Q 3713 2572 3713 1747 
Q 3713 922 3314 415 
Q 2916 -91 2278 -91 
Q 1894 -91 1617 61 
Q 1341 213 1159 525 
L 1159 0 
L 581 0 
L 581 4863 
L 1159 4863 
L 1159 2969 
z
" transform="scale(0.015625)"/>
      <path id="DejaVuSans-69" d="M 603 3500 
L 1178 3500 
L 1178 0 
L 603 0 
L 603 3500 
z
M 603 4863 
L 1178 4863 
L 1178 4134 
L 603 4134 
L 603 4863 
z
" transform="scale(0.015625)"/>
      <path id="DejaVuSans-68" d="M 3513 2113 
L 3513 0 
L 2938 0 
L 2938 2094 
Q 2938 2591 2744 2837 
Q 2550 3084 2163 3084 
Q 1697 3084 1428 2787 
Q 1159 2491 1159 1978 
L 1159 0 
L 581 0 
L 581 4863 
L 1159 4863 
L 1159 2956 
Q 1366 3272 1645 3428 
Q 1925 3584 2291 3584 
Q 2894 3584 3203 3211 
Q 3513 2838 3513 2113 
z
" transform="scale(0.015625)"/>
      <path id="DejaVuSans-75" d="M 544 1381 
L 544 3500 
L 1119 3500 
L 1119 1403 
Q 1119 906 1312 657 
Q 1506 409 1894 409 
Q 2359 409 2629 706 
Q 2900 1003 2900 1516 
L 2900 3500 
L 3475 3500 
L 3475 0 
L 2900 0 
L 2900 538 
Q 2691 219 2414 64 
Q 2138 -91 1772 -91 
Q 1169 -91 856 284 
Q 544 659 544 1381 
z
M 1991 3584 
L 1991 3584 
z
" transform="scale(0.015625)"/>
      <path id="DejaVuSans-2c" d="M 750 794 
L 1409 794 
L 1409 256 
L 897 -744 
L 494 -744 
L 750 256 
L 750 794 
z
" transform="scale(0.015625)"/>
      <path id="DejaVuSans-6b" d="M 581 4863 
L 1159 4863 
L 1159 1991 
L 2875 3500 
L 3609 3500 
L 1753 1863 
L 3688 0 
L 2938 0 
L 1159 1709 
L 1159 0 
L 581 0 
L 581 4863 
z
" transform="scale(0.015625)"/>
      <path id="DejaVuSans-63" d="M 3122 3366 
L 3122 2828 
Q 2878 2963 2633 3030 
Q 2388 3097 2138 3097 
Q 1578 3097 1268 2742 
Q 959 2388 959 1747 
Q 959 1106 1268 751 
Q 1578 397 2138 397 
Q 2388 397 2633 464 
Q 2878 531 3122 666 
L 3122 134 
Q 2881 22 2623 -34 
Q 2366 -91 2075 -91 
Q 1284 -91 818 406 
Q 353 903 353 1747 
Q 353 2603 823 3093 
Q 1294 3584 2113 3584 
Q 2378 3584 2631 3529 
Q 2884 3475 3122 3366 
z
" transform="scale(0.015625)"/>
      <path id="DejaVuSans-67" d="M 2906 1791 
Q 2906 2416 2648 2759 
Q 2391 3103 1925 3103 
Q 1463 3103 1205 2759 
Q 947 2416 947 1791 
Q 947 1169 1205 825 
Q 1463 481 1925 481 
Q 2391 481 2648 825 
Q 2906 1169 2906 1791 
z
M 3481 434 
Q 3481 -459 3084 -895 
Q 2688 -1331 1869 -1331 
Q 1566 -1331 1297 -1286 
Q 1028 -1241 775 -1147 
L 775 -588 
Q 1028 -725 1275 -790 
Q 1522 -856 1778 -856 
Q 2344 -856 2625 -561 
Q 2906 -266 2906 331 
L 2906 616 
Q 2728 306 2450 153 
Q 2172 0 1784 0 
Q 1141 0 747 490 
Q 353 981 353 1791 
Q 353 2603 747 3093 
Q 1141 3584 1784 3584 
Q 2172 3584 2450 3431 
Q 2728 3278 2906 2969 
L 2906 3500 
L 3481 3500 
L 3481 434 
z
" transform="scale(0.015625)"/>
     </defs>
     <use xlink:href="#DejaVuSans-4d"/>
     <use xlink:href="#DejaVuSans-65" x="86.279297"/>
     <use xlink:href="#DejaVuSans-61" x="147.802734"/>
     <use xlink:href="#DejaVuSans-6e" x="209.082031"/>
     <use xlink:href="#DejaVuSans-20" x="272.460938"/>
     <use xlink:href="#DejaVuSans-6e" x="304.248047"/>
     <use xlink:href="#DejaVuSans-6f" x="367.626953"/>
     <use xlink:href="#DejaVuSans-76" x="428.808594"/>
     <use xlink:href="#DejaVuSans-65" x="487.988281"/>
     <use xlink:href="#DejaVuSans-6c" x="549.511719"/>
     <use xlink:href="#DejaVuSans-74" x="577.294922"/>
     <use xlink:href="#DejaVuSans-79" x="616.503906"/>
     <use xlink:href="#DejaVuSans-20" x="675.683594"/>
     <use xlink:href="#DejaVuSans-70" x="707.470703"/>
     <use xlink:href="#DejaVuSans-65" x="770.947266"/>
     <use xlink:href="#DejaVuSans-72" x="832.470703"/>
     <use xlink:href="#DejaVuSans-20" x="873.583984"/>
     <use xlink:href="#DejaVuSans-62" x="905.371094"/>
     <use xlink:href="#DejaVuSans-69" x="968.847656"/>
     <use xlink:href="#DejaVuSans-72" x="996.630859"/>
     <use xlink:href="#DejaVuSans-74" x="1037.744141"/>
     <use xlink:href="#DejaVuSans-68" x="1076.953125"/>
     <use xlink:href="#DejaVuSans-20" x="1140.332031"/>
     <use xlink:href="#DejaVuSans-79" x="1172.119141"/>
     <use xlink:href="#DejaVuSans-65" x="1231.298828"/>
     <use xlink:href="#DejaVuSans-61" x="1292.822266"/>
     <use xlink:href="#DejaVuSans-72" x="1354.101562"/>
     <use xlink:href="#DejaVuSans-20" x="1395.214844"/>
     <use xlink:href="#DejaVuSans-69" x="1427.001953"/>
     <use xlink:href="#DejaVuSans-6e" x="1454.785156"/>
     <use xlink:href="#DejaVuSans-20" x="1518.164062"/>
     <use xlink:href="#DejaVuSans-6f" x="1549.951172"/>
     <use xlink:href="#DejaVuSans-75" x="1611.132812"/>
     <use xlink:href="#DejaVuSans-72" x="1674.511719"/>
     <use xlink:href="#DejaVuSans-20" x="1715.625"/>
     <use xlink:href="#DejaVuSans-6e" x="1747.412109"/>
     <use xlink:href="#DejaVuSans-6f" x="1810.791016"/>
     <use xlink:href="#DejaVuSans-76" x="1871.972656"/>
     <use xlink:href="#DejaVuSans-65" x="1931.152344"/>
     <use xlink:href="#DejaVuSans-6c" x="1992.675781"/>
     <use xlink:href="#DejaVuSans-73" x="2020.458984"/>
     <use xlink:href="#DejaVuSans-2c" x="2072.558594"/>
     <use xlink:href="#DejaVuSans-20" x="2104.345703"/>
     <use xlink:href="#DejaVuSans-62" x="2136.132812"/>
     <use xlink:href="#DejaVuSans-72" x="2199.609375"/>
     <use xlink:href="#DejaVuSans-6f" x="2238.472656"/>
     <use xlink:href="#DejaVuSans-6b" x="2299.654297"/>
     <use xlink:href="#DejaVuSans-65" x="2353.939453"/>
     <use xlink:href="#DejaVuSans-6e" x="2415.462891"/>
     <use xlink:href="#DejaVuSans-20" x="2478.841797"/>
     <use xlink:href="#DejaVuSans-6f" x="2510.628906"/>
     <use xlink:href="#DejaVuSans-75" x="2571.810547"/>
     <use xlink:href="#DejaVuSans-74" x="2635.189453"/>
     <use xlink:href="#DejaVuSans-20" x="2674.398438"/>
     <use xlink:href="#DejaVuSans-62" x="2706.185547"/>
     <use xlink:href="#DejaVuSans-79" x="2769.662109"/>
     <use xlink:href="#DejaVuSans-20" x="2828.841797"/>
     <use xlink:href="#DejaVuSans-63" x="2860.628906"/>
     <use xlink:href="#DejaVuSans-61" x="2915.609375"/>
     <use xlink:href="#DejaVuSans-6e" x="2976.888672"/>
     <use xlink:href="#DejaVuSans-6f" x="3040.267578"/>
     <use xlink:href="#DejaVuSans-6e" x="3101.449219"/>
     <use xlink:href="#DejaVuSans-69" x="3164.828125"/>
     <use xlink:href="#DejaVuSans-63" x="3192.611328"/>
     <use xlink:href="#DejaVuSans-69" x="3247.591797"/>
     <use xlink:href="#DejaVuSans-74" x="3275.375"/>
     <use xlink:href="#DejaVuSans-79" x="3314.583984"/>
     <use xlink:href="#DejaVuSans-20" x="3373.763672"/>
     <use xlink:href="#DejaVuSans-74" x="3405.550781"/>
     <use xlink:href="#DejaVuSans-61" x="3444.759766"/>
     <use xlink:href="#DejaVuSans-67" x="3506.039062"/>
    </g>
   </g>
   <g id="legend_1">
    <g id="patch_7">
     <path d="M 573.005938 97.586875 
L 745.434063 97.586875 
Q 749.434063 97.586875 749.434063 93.586875 
L 749.434063 36.318125 
Q 749.434063 32.318125 745.434063 32.318125 
L 573.005938 32.318125 
Q 569.005938 32.318125 569.005938 36.318125 
L 569.005938 93.586875 
Q 569.005938 97.586875 573.005938 97.586875 
z
" style="fill: #eaeaf2; opacity: 0.8; stroke: #cccccc; stroke-linejoin: miter"/>
    </g>
    <g id="line2d_15">
     <path d="M 577.005938 48.515 
L 597.005938 48.515 
L 617.005938 48.515 
" style="fill: none; stroke: #0000ff; stroke-width: 2.25; stroke-linecap: round"/>
    </g>
    <g id="text_16">
     <!-- non_canon -->
     <g style="fill: #262626" transform="translate(633.005938 55.515) scale(0.2 -0.2)">
      <defs>
       <path id="DejaVuSans-5f" d="M 3263 -1063 
L 3263 -1509 
L -63 -1509 
L -63 -1063 
L 3263 -1063 
z
" transform="scale(0.015625)"/>
      </defs>
      <use xlink:href="#DejaVuSans-6e"/>
      <use xlink:href="#DejaVuSans-6f" x="63.378906"/>
      <use xlink:href="#DejaVuSans-6e" x="124.560547"/>
      <use xlink:href="#DejaVuSans-5f" x="187.939453"/>
      <use xlink:href="#DejaVuSans-63" x="237.939453"/>
      <use xlink:href="#DejaVuSans-61" x="292.919922"/>
      <use xlink:href="#DejaVuSans-6e" x="354.199219"/>
      <use xlink:href="#DejaVuSans-6f" x="417.578125"/>
      <use xlink:href="#DejaVuSans-6e" x="478.759766"/>
     </g>
    </g>
    <g id="line2d_16">
     <path d="M 577.005938 78.4275 
L 597.005938 78.4275 
L 617.005938 78.4275 
" style="fill: none; stroke: #ff0000; stroke-width: 2.25; stroke-linecap: round"/>
    </g>
    <g id="text_17">
     <!-- canon -->
     <g style="fill: #262626" transform="translate(633.005938 85.4275) scale(0.2 -0.2)">
      <use xlink:href="#DejaVuSans-63"/>
      <use xlink:href="#DejaVuSans-61" x="54.980469"/>
      <use xlink:href="#DejaVuSans-6e" x="116.259766"/>
      <use xlink:href="#DejaVuSans-6f" x="179.638672"/>
      <use xlink:href="#DejaVuSans-6e" x="240.820312"/>
     </g>
    </g>
   </g>
  </g>
 </g>
 <defs>
  <clipPath id="p3ee5263010">
   <rect x="56.805938" y="22.318125" width="502.2" height="326.16"/>
  </clipPath>
 </defs>
</svg>
